<svg width="133" height="65" viewBox="0 0 133 65" fill="none" xmlns="http://www.w3.org/2000/svg">
<path d="M22.4709 1.09452C28.7586 -0.477961 35.5116 -0.379394 41.7121 1.54151C47.9264 3.47846 53.304 7.77185 56.8135 13.2251C53.5585 13.2435 50.3035 13.232 47.0508 13.232C45.4943 11.0727 43.6399 9.10365 41.4393 7.59076C38.1958 5.31227 34.2027 4.19136 30.2531 4.24178C26.1271 4.17989 21.9231 5.31227 18.5787 7.77644C14.8653 10.479 12.275 14.4904 10.6911 18.754C10.4779 18.8618 10.2693 18.9833 10.079 19.1277C8.82059 18.9603 7.54839 19.444 6.32203 19.0474C5.73063 18.9351 5.15757 19.2331 4.58909 19.3386C4.30944 19.1827 4.03207 19.0268 3.75242 18.8709C3.67448 18.9535 3.51632 19.1185 3.43838 19.201C3.32377 19.1002 3.20915 18.997 3.09454 18.8939C2.87678 19.1116 2.62005 19.2056 2.32435 19.0704C5.75814 10.3942 13.357 3.35239 22.4709 1.09452Z" fill="#CA1704"/>
<path d="M29.4577 18.6004C30.3631 18.4744 31.3763 18.3941 32.197 18.887C34.3723 20.0354 34.5373 23.5448 32.6348 25.021C31.0096 26.2772 28.3116 25.821 27.3786 23.9391C27.0027 23.3844 27.0646 22.7013 26.9821 22.0686C26.911 20.5168 27.8921 18.9443 29.4577 18.6004ZM28.2199 20.8996C28.0296 21.8806 28.0892 22.9328 28.6142 23.8061C29.0955 24.4801 29.8153 25.1402 30.7162 25.0073C31.8187 25.0829 32.5362 24.0101 32.7058 23.0405C33.0795 21.4062 32.1465 19.1689 30.2623 19.1024C29.2697 19.2102 28.4927 19.9597 28.2199 20.8996Z" fill="#FEFEFE"/>
<path d="M34.26 18.6738C36.5614 18.5913 38.8697 18.6555 41.1757 18.644C41.1895 18.7792 41.2193 19.052 41.233 19.1873C40.8823 19.201 40.5316 19.2125 40.1832 19.2239C40.19 21.1173 40.1877 23.013 40.1854 24.9087C40.5614 24.9156 41.4714 24.7918 41.1528 25.4474C40.1969 25.4795 39.2387 25.4497 38.2806 25.4589C38.2806 25.3236 38.2806 25.0531 38.2806 24.9202C38.5602 24.9179 38.8399 24.9179 39.1195 24.9179C39.1127 23.068 39.1287 21.2159 39.1104 19.3661C38.1866 19.3752 37.2628 19.3683 36.339 19.3729C36.3368 21.2205 36.3413 23.068 36.3368 24.9179C36.5499 24.9179 36.974 24.9179 37.1872 24.9179C37.1849 25.0531 37.1803 25.3236 37.1803 25.4589C36.1809 25.4405 35.1792 25.507 34.182 25.413C34.2233 25.2892 34.3058 25.044 34.3471 24.9225C34.6565 24.9202 34.9683 24.9202 35.28 24.9179C35.264 23.1001 35.3052 21.2801 35.264 19.4623C35.1402 19.013 34.535 19.2973 34.221 19.1918C34.2302 19.0635 34.2508 18.8045 34.26 18.6738Z" fill="#FEFEFE"/>
<path d="M67.2225 18.5248C67.3578 18.5294 67.6283 18.5385 67.7635 18.5431C68.4741 20.5397 69.2237 22.5248 69.9434 24.519C70.0008 24.9843 70.5165 25.021 70.8856 24.8743C70.8901 25.0783 70.8947 25.2823 70.8993 25.4886C69.9503 25.4313 68.999 25.4703 68.0477 25.4543C67.9125 24.7826 68.5131 24.9179 68.9601 24.9293C68.6919 24.3333 68.4787 23.7167 68.2747 23.0978C67.5801 23.1001 66.8856 23.1024 66.1933 23.0909C65.9366 23.6892 65.6867 24.2921 65.4827 24.9133C65.673 24.9156 66.0512 24.9202 66.2415 24.9225C66.2415 25.0554 66.246 25.3213 66.2483 25.4543C65.4667 25.4634 64.6827 25.4405 63.9034 25.4863C63.9011 25.2823 63.9011 25.076 63.8988 24.872C64.0867 24.8766 64.465 24.8881 64.6529 24.8927C65.6157 22.8228 66.3721 20.6474 67.2225 18.5248ZM66.418 22.4216C66.9498 22.4216 67.4839 22.4216 68.0157 22.4193C67.8048 21.7087 67.4678 21.0417 67.3142 20.315C66.9589 20.9935 66.7068 21.7156 66.418 22.4216Z" fill="#FEFEFE"/>
<path d="M72.5383 18.6738C74.2483 18.5844 75.9675 18.6715 77.6798 18.6325C77.689 18.7746 77.7073 19.0635 77.7142 19.2079C77.3933 19.2102 77.0701 19.2125 76.7491 19.2125C76.7469 21.1104 76.7514 23.0084 76.7491 24.9064C77.1984 24.9316 77.8586 24.7574 77.744 25.452C76.7675 25.4543 75.791 25.4772 74.8168 25.4474C74.4363 24.7826 75.2592 24.9133 75.6535 24.9087C75.6535 23.0634 75.6534 21.2182 75.6512 19.3729C75.1835 19.3706 74.7136 19.3706 74.246 19.3729C74.2047 21.209 74.1268 23.1551 73.2924 24.8285C72.9119 25.7545 71.7956 25.7431 70.991 25.4566C71.0048 25.2571 71.0231 25.06 71.0437 24.8629C71.1423 24.7437 71.3417 24.503 71.4403 24.3838C71.6489 24.0514 72.0065 24.4869 72.2288 24.5786C73.0059 24.1614 73.0197 23.2285 73.2833 22.495C73.4368 21.9059 73.2466 21.2388 73.5446 20.6955C73.5675 20.2004 73.5652 19.7076 73.5629 19.2125C73.2122 19.2102 72.8615 19.2102 72.5131 19.2056C72.5199 19.0726 72.5314 18.8067 72.5383 18.6738Z" fill="#FEFEFE"/>
<path d="M88.2883 18.6325C89.2511 18.644 90.2138 18.6325 91.1766 18.6417C91.1903 18.7792 91.2155 19.052 91.2293 19.1896C90.8877 19.201 90.5485 19.2125 90.2092 19.2194C90.2092 21.115 90.2115 23.0084 90.2092 24.9041C90.6425 24.9179 91.2958 24.7918 91.2706 25.4382C90.2665 25.4749 89.2602 25.4589 88.2562 25.452C88.2562 25.319 88.2539 25.0531 88.2539 24.9202C88.5519 24.9202 88.8499 24.9179 89.1502 24.9179C89.1502 24.0102 89.1502 23.1024 89.1502 22.1924C88.1623 22.1924 87.1766 22.1924 86.1886 22.1924C86.1886 23.0955 86.1886 23.9987 86.1886 24.9041C86.6058 24.9041 87.1903 24.8331 87.1468 25.4405C86.1428 25.4726 85.1388 25.4612 84.1348 25.4497C84.1348 25.3167 84.1348 25.0531 84.1348 24.9225C84.458 24.9202 84.7858 24.9179 85.1113 24.9156C85.0815 23.0153 85.1686 21.1105 85.0654 19.2125C84.7468 19.2102 84.4305 19.2056 84.1141 19.201C84.1256 19.0681 84.1462 18.7976 84.1577 18.6646C85.125 18.6188 86.0992 18.6165 87.0666 18.6669C87.0757 18.7999 87.0941 19.0681 87.1055 19.2033C86.7984 19.2079 86.4935 19.2102 86.1886 19.2148C86.1886 19.9827 86.1886 20.7483 86.1886 21.5162C87.1766 21.5185 88.1623 21.5162 89.1502 21.5162C89.1502 20.7483 89.1502 19.9827 89.1525 19.2171C88.8476 19.2125 88.5428 19.2079 88.2402 19.201C88.2539 19.0589 88.2769 18.7747 88.2883 18.6325Z" fill="#FEFEFE"/>
<path d="M91.7382 21.1655C92.0614 19.9047 93.0929 18.7884 94.3972 18.55C95.2705 18.4973 96.231 18.4331 96.9943 18.9511C98.1221 19.5838 98.7066 20.9248 98.5645 22.1924C98.6585 23.2331 98.1519 24.2348 97.3977 24.9248C95.9444 26.0227 93.6132 25.8852 92.435 24.4388C91.6809 23.5196 91.6511 22.2932 91.7382 21.1655ZM93.5903 19.7236C92.568 20.9844 92.6505 22.9007 93.6224 24.1614C94.2894 25.0187 95.7015 25.3488 96.5404 24.5511C97.4596 23.6984 97.5742 22.3322 97.345 21.1655C97.0814 20.5259 96.7124 19.9414 96.2081 19.4669C95.3599 18.9993 94.3215 19.0749 93.5903 19.7236Z" fill="#FEFEFE"/>
<path d="M99.1101 18.6463C100.795 18.6371 102.48 18.628 104.164 18.6486C104.167 19.2538 104.185 19.8612 104.153 20.4664C103.981 20.4709 103.637 20.4778 103.465 20.4824C103.433 20.1111 103.392 19.7397 103.355 19.3684C102.626 19.373 101.897 19.373 101.171 19.3707C101.171 20.1294 101.168 20.8858 101.171 21.6446C101.602 21.6446 102.035 21.6446 102.468 21.6446C102.468 21.4314 102.468 21.0096 102.47 20.7987C102.617 20.8056 102.915 20.8171 103.062 20.8239C103.055 21.6194 103.062 22.4125 103.048 23.2079C102.917 23.2216 102.656 23.2514 102.526 23.2675C102.48 22.9305 102.484 22.5867 102.39 22.2589C101.996 22.1305 101.572 22.2131 101.168 22.1947C101.171 23.1024 101.173 24.0102 101.168 24.9202C101.913 24.9156 102.658 24.911 103.406 24.9317C103.511 24.4984 103.607 24.0606 103.649 23.6136C103.807 23.6205 104.121 23.6297 104.279 23.6365C104.291 24.2417 104.291 24.8446 104.288 25.4497C102.535 25.452 100.779 25.4887 99.0252 25.4314C99.0711 25.303 99.1582 25.0463 99.204 24.9179C99.502 24.9179 99.8023 24.9179 100.103 24.9202C100.103 23.0222 100.096 21.1242 100.107 19.2262C99.7542 19.2148 99.4035 19.201 99.055 19.1873C99.0688 19.052 99.0963 18.7816 99.1101 18.6463Z" fill="#FEFEFE"/>
<path d="M41.4943 18.6508C43.4244 18.6233 45.3545 18.644 47.2845 18.6394C47.2983 19.2491 47.2983 19.8589 47.296 20.4686C47.0691 20.4778 46.8444 20.4847 46.6175 20.4915C46.5625 20.1179 46.5075 19.7465 46.4685 19.3706C45.9527 19.3706 45.4393 19.3706 44.9258 19.3729C44.9235 21.2205 44.9235 23.0703 44.9258 24.9179C45.2651 24.9179 45.6043 24.9179 45.9459 24.9179C45.9344 25.0508 45.9092 25.3144 45.8977 25.4451C44.8869 25.4795 43.8783 25.452 42.8697 25.4543C42.8697 25.3213 42.8697 25.0554 42.8697 24.9224C43.1906 24.9202 43.5138 24.9179 43.837 24.9156C43.8347 23.068 43.837 21.2205 43.8347 19.3706C43.351 19.3706 42.8651 19.3706 42.3814 19.3752C42.3402 19.7603 42.2462 20.1339 42.1201 20.5007C41.9665 20.4961 41.6617 20.4892 41.5081 20.4847C41.4874 19.8726 41.4897 19.2629 41.4943 18.6508Z" fill="#FEFEFE"/>
<path d="M47.6353 18.6532C48.5934 18.6257 49.5516 18.6234 50.5097 18.6555C50.5258 18.793 50.5556 19.0704 50.5716 19.2079C50.3516 19.2102 49.9115 19.2125 49.6891 19.2125C49.6845 20.5741 49.7006 21.9334 49.6799 23.2927C50.3011 22.4812 51.0095 21.7431 51.6215 20.9225C52.0158 20.3678 52.6645 19.9391 52.7699 19.2216C52.449 19.2125 52.1258 19.2056 51.8072 19.1964C51.8163 19.0658 51.8393 18.7999 51.8484 18.6692C52.8226 18.6027 53.8037 18.6417 54.7802 18.6532C54.7779 18.7907 54.7756 19.0681 54.7756 19.2056C54.4662 19.2079 54.1567 19.2102 53.8473 19.2125C53.751 21.1082 53.8335 23.0062 53.8037 24.9041C54.2461 24.9362 54.9109 24.7643 54.8261 25.4474C53.8266 25.4657 52.8249 25.4634 51.8255 25.4497C51.8255 25.319 51.8255 25.0554 51.8255 24.9248C52.1235 24.9202 52.4215 24.9179 52.7218 24.9156C52.7195 23.5173 52.7286 22.1168 52.7195 20.7185C51.7338 21.9288 50.7527 23.1437 49.7556 24.3448C49.6501 24.5145 49.7075 24.7345 49.6777 24.9248C49.8931 24.9202 50.3264 24.911 50.5418 24.9087C50.5441 25.0921 50.5464 25.2755 50.5487 25.4612C49.5539 25.4566 48.559 25.4634 47.5665 25.4543C47.4633 24.7483 48.1396 24.9362 48.598 24.9087C48.6026 23.0107 48.6003 21.1105 48.6003 19.2125C48.261 19.2102 47.9218 19.2102 47.5825 19.2102C47.5963 19.0704 47.6215 18.793 47.6353 18.6532Z" fill="#FEFEFE"/>
<path d="M55.2387 18.6394C55.9791 18.6371 56.7195 18.6371 57.4599 18.6394C58.0627 20.338 58.8604 21.9586 59.4564 23.6594C60.1968 22.0136 60.7997 20.3036 61.508 18.6417C62.2461 18.6348 62.9865 18.6371 63.7246 18.6394C63.7246 18.7792 63.7246 19.0635 63.7246 19.2033C63.4197 19.2125 63.1148 19.2239 62.8123 19.2354C62.7366 21.1334 62.7985 23.0337 62.7802 24.9316C63.03 24.9179 63.5297 24.8927 63.7796 24.8789C63.7773 25.0806 63.775 25.2824 63.775 25.4864C62.755 25.4313 61.7326 25.468 60.7126 25.4589C60.7126 25.3236 60.7126 25.0531 60.7126 24.9179C61.0335 24.9179 61.3567 24.9179 61.6776 24.9179C61.6638 23.3729 61.712 21.8279 61.6501 20.283C60.834 22.0319 60.1578 23.8566 59.4518 25.6537C59.1584 25.5987 58.9269 25.452 58.8788 25.1379C58.2232 23.3752 57.4461 21.6629 56.7699 19.907C56.8341 21.5804 56.7745 23.256 56.8043 24.9316C57.0129 24.9248 57.4278 24.9064 57.6341 24.8995C57.6432 25.0852 57.6524 25.2732 57.6639 25.4589C56.8547 25.4589 56.0478 25.4589 55.2387 25.4589C55.2387 25.3236 55.241 25.0531 55.241 24.9179C55.5183 24.9179 55.798 24.9179 56.0776 24.9179C56.0776 23.0176 56.073 21.1173 56.0799 19.2193C55.8003 19.2148 55.5206 19.2102 55.241 19.2079C55.241 19.0658 55.2387 18.7815 55.2387 18.6394Z" fill="#FEFEFE"/>
<path d="M78.301 18.6554C79.266 18.6142 80.2334 18.6486 81.1984 18.6394C81.2007 18.7815 81.2053 19.0681 81.2076 19.2102C80.8775 19.2102 80.5497 19.2102 80.2219 19.2125C80.2219 19.9322 80.2242 20.6497 80.2127 21.3695C81.0471 21.3672 81.8952 21.3328 82.6746 21.6881C83.0781 21.9655 83.36 22.3643 83.6121 22.7792C83.5846 23.3889 83.729 24.0675 83.3394 24.5993C83.0299 25.1494 82.3697 25.2823 81.8127 25.4428C80.6322 25.4909 79.4494 25.4405 78.2689 25.4611C78.2712 25.2755 78.2735 25.0898 78.2758 24.9064C78.489 24.911 78.913 24.9202 79.1262 24.9248C79.1239 23.0199 79.1262 21.1173 79.1262 19.2148C78.9039 19.2125 78.4615 19.2079 78.2414 19.2056C78.2551 19.0681 78.2849 18.793 78.301 18.6554ZM80.2219 22.1167C80.2219 23.052 80.2219 23.9872 80.2219 24.9225C80.4236 24.9179 80.8293 24.9087 81.0311 24.9041C81.5354 24.7047 82.2185 24.597 82.356 23.9643C82.3812 23.4554 82.4844 22.7861 81.9755 22.472C81.4895 22.0365 80.8248 22.1076 80.2219 22.1167Z" fill="#FEFEFE"/>
<path d="M26.2852 28.629C28.4468 28.6245 30.6084 28.6336 32.77 28.6245C34.2967 28.6222 35.9333 28.9591 37.0474 30.0777C37.5241 30.6073 37.735 31.2904 37.9643 31.9482C37.9688 32.5534 37.9665 33.1585 37.9711 33.7637C37.5104 35.4508 36.0342 36.6542 34.3838 37.092C33.107 37.5413 31.75 37.2594 30.4732 36.9728C30.4709 38.7906 30.4755 40.6084 30.4709 42.4284C31.248 42.5132 32.025 42.6347 32.809 42.6209C32.8113 42.9854 32.8113 43.3499 32.809 43.7166C30.6291 43.7052 28.4491 43.7442 26.2692 43.696C26.2692 43.3453 26.2669 42.9969 26.2669 42.6507C26.9821 42.6141 27.6927 42.4811 28.4102 42.4926C28.4308 38.323 28.4377 34.1511 28.4079 29.9838C28.3597 29.9265 28.2612 29.8119 28.213 29.7545C27.5574 29.75 26.911 29.6743 26.2715 29.5391C26.2738 29.2365 26.2784 28.9316 26.2852 28.629ZM30.4663 29.9127C30.5419 31.9757 30.3517 34.0754 30.558 36.1178C31.2525 36.1453 32.0296 36.3218 32.6783 36.0101C33.6021 35.9826 34.5282 35.5585 35.0623 34.7883C35.6583 33.9631 35.6972 32.8697 35.507 31.9001C34.833 29.876 32.2634 29.6697 30.4663 29.9127Z" fill="#FEFEFE"/>
<path d="M39.2387 28.6359C42.8834 28.6244 46.5281 28.6199 50.1705 28.6382C50.1842 29.915 50.1911 31.1918 50.1659 32.4685C49.7831 32.4754 49.4003 32.4823 49.0175 32.4892C48.8226 31.6456 48.6186 30.7929 48.5888 29.9241C46.888 29.727 45.1596 29.8943 43.445 29.8393C43.4473 31.6479 43.445 33.4542 43.4473 35.2628C44.4811 35.2582 45.5149 35.2788 46.5464 35.2422C46.5121 34.6187 46.7367 34.0319 46.7894 33.4198C47.131 33.4221 47.4748 33.4244 47.8186 33.429C47.7957 35.0794 47.8507 36.7321 47.7957 38.3826C47.5757 38.7241 47.1218 38.5522 46.7894 38.6164C46.7619 37.8874 46.5258 37.186 46.5189 36.4548C45.4943 36.4204 44.4697 36.441 43.445 36.4364C43.4588 38.4055 43.4244 40.3745 43.4611 42.3413L43.6124 42.4834C45.3155 42.5178 47.0186 42.4719 48.7218 42.504C49.0335 41.6559 49.1275 40.7436 49.265 39.8565C49.6937 39.8611 50.1223 39.8679 50.5533 39.8863C50.5579 41.0141 50.5648 42.1418 50.5579 43.2696C50.5946 43.5951 50.292 43.7946 49.9917 43.7143C46.4845 43.7097 42.9751 43.735 39.468 43.7029C39.0691 43.4897 39.2731 42.9969 39.2273 42.6393C39.9356 42.6232 40.6347 42.4948 41.343 42.4788C41.343 38.2588 41.3453 34.0364 41.343 29.8164C40.6301 29.7499 39.9218 29.6651 39.2204 29.5368C39.225 29.2365 39.2319 28.9362 39.2387 28.6359Z" fill="#FEFEFE"/>
<path d="M52.0822 28.6405C54.1063 28.6222 56.1303 28.6176 58.1544 28.6405C58.1636 28.9362 58.1727 29.2319 58.1819 29.5276C57.5676 29.6445 56.9533 29.7774 56.3252 29.7385C56.2587 33.9906 56.316 38.2427 56.2954 42.4949C58.01 42.4559 59.7315 42.5728 61.4415 42.433C61.4369 38.5132 61.4346 34.5935 61.4438 30.6737C61.3842 30.3849 61.5836 29.8668 61.1962 29.7591C60.6575 29.7362 60.1189 29.6858 59.5985 29.5436C59.5985 29.2388 59.5985 28.9339 59.6008 28.629C61.5171 28.6267 63.4357 28.629 65.3544 28.629C65.3544 28.9339 65.3567 29.2388 65.3567 29.5459C64.7515 29.6674 64.1395 29.7499 63.5229 29.7683C63.461 34.0112 63.5045 38.2542 63.4999 42.4971C65.1595 42.4811 66.8191 42.5132 68.4787 42.4857C68.5245 42.4375 68.6117 42.3436 68.6575 42.2954C68.685 38.1442 68.6529 33.9929 68.6712 29.8416C68.0386 29.7362 67.3922 29.6995 66.7733 29.5253C66.7778 29.2296 66.7847 28.9362 66.7916 28.6428C68.7698 28.6107 70.7457 28.6359 72.724 28.629C72.7262 28.9362 72.7262 29.2411 72.7262 29.5482C72.0913 29.6972 71.4426 29.7774 70.7893 29.7316C70.732 33.9769 70.7801 38.2244 70.7641 42.4719C71.4151 42.5155 72.0592 42.6301 72.7148 42.6186C72.724 42.9854 72.724 43.3544 72.7148 43.7235C65.9481 43.7006 59.179 43.735 52.41 43.7075C51.8988 43.6341 52.1029 42.9969 52.0708 42.637C52.7791 42.6255 53.4805 42.4926 54.1888 42.4765C54.1957 38.2702 54.1705 34.0617 54.2026 29.8531C53.492 29.711 52.7653 29.6835 52.057 29.5322C52.0639 29.2342 52.0731 28.9362 52.0822 28.6405Z" fill="#FEFEFE"/>
<path d="M74.1612 28.629C77.7875 28.6199 81.4162 28.6428 85.0425 28.6176C85.0861 28.7093 85.1732 28.8927 85.2167 28.9866C85.2419 30.0548 85.2351 31.1253 85.2213 32.1958C84.976 32.6909 84.3663 32.4158 83.9376 32.4777C83.7749 31.6044 83.6305 30.731 83.4769 29.8577C81.8081 29.8164 80.1394 29.8508 78.4706 29.8394C78.4683 31.6456 78.4752 33.4497 78.4683 35.2559C79.4769 35.2674 80.4878 35.2651 81.4987 35.2582C81.5285 34.6439 81.6156 34.0342 81.6431 33.4221C82.003 33.4199 82.3652 33.4198 82.7273 33.4198C82.725 35.1413 82.7296 36.8628 82.725 38.5843C82.3606 38.5889 81.9824 38.637 81.6431 38.4697C81.6271 37.7889 81.5056 37.1173 81.501 36.4365C80.4901 36.4342 79.4792 36.4365 78.4683 36.4365C78.4729 38.4536 78.466 40.4731 78.4729 42.4926C80.2196 42.4972 81.9686 42.4903 83.7176 42.4949C84.0064 41.6376 83.9766 40.7046 84.3021 39.8542C84.6872 39.8611 85.0746 39.868 85.4643 39.8771C85.4803 41.1539 85.4826 42.4307 85.462 43.7052C81.8104 43.7235 78.1566 43.7258 74.5027 43.7052C73.9549 43.7006 74.1337 42.9533 74.2552 42.6278C74.9406 42.6347 75.6145 42.504 76.2976 42.4788C76.2953 38.2588 76.3113 34.0388 76.2907 29.8187C75.5732 29.7477 74.8557 29.6766 74.1474 29.5437C74.1497 29.2388 74.1543 28.9339 74.1612 28.629Z" fill="#FEFEFE"/>
<path d="M87.1307 28.6359C89.1021 28.6336 91.078 28.6039 93.0493 28.6474C93.4619 28.6818 93.2236 29.2526 93.2832 29.5162C92.6597 29.6766 92.0247 29.7821 91.3783 29.7271C91.2476 31.5173 91.3554 33.319 91.3233 35.1138C93.6201 35.1138 95.917 35.1138 98.2138 35.1138C98.2161 33.3534 98.2069 31.5907 98.2161 29.8302C97.5628 29.7408 96.9003 29.711 96.2585 29.546C96.2585 29.2411 96.2608 28.9339 96.2631 28.6291C98.3169 28.6359 100.369 28.613 102.422 28.6405C102.429 28.9385 102.434 29.2365 102.441 29.5368C101.735 29.6789 101.015 29.7225 100.307 29.8417C100.327 34.0548 100.311 38.2657 100.316 42.4788C101.022 42.4972 101.721 42.621 102.429 42.637C102.429 42.9923 102.427 43.3476 102.422 43.7052C100.369 43.7304 98.3146 43.7098 96.2608 43.7167C96.2608 43.3522 96.2608 42.99 96.2608 42.6256C96.9141 42.6278 97.5582 42.5064 98.2115 42.4811C98.2138 40.4387 98.2115 38.3963 98.2115 36.354C95.9192 36.3494 93.6247 36.3631 91.3302 36.3494C91.3095 38.3918 91.3279 40.4365 91.321 42.4788C91.9491 42.527 92.5909 42.543 93.2052 42.692C93.3909 43.0038 93.4276 43.8244 92.8476 43.7144C90.9405 43.7167 89.0333 43.7258 87.1285 43.7075C87.1239 43.3476 87.1216 42.99 87.1239 42.6347C87.8001 42.6255 88.4694 42.5018 89.1456 42.4857C89.1365 38.2405 89.1915 33.9929 89.1158 29.75C88.4442 29.7454 87.768 29.7339 87.117 29.5414C87.1193 29.2411 87.1239 28.9385 87.1307 28.6359Z" fill="#FEFEFE"/>
<path d="M103.853 28.6336C105.904 28.6244 107.958 28.6244 110.012 28.6336C110.014 28.9362 110.019 29.2388 110.026 29.5413C109.368 29.7201 108.687 29.7293 108.018 29.8302C107.997 33.0324 108.052 36.237 107.99 39.4393C110.356 36.4594 112.822 33.5551 115.179 30.5683C115.174 30.323 115.17 30.0754 115.167 29.8302C114.514 29.7477 113.861 29.6651 113.214 29.5482C113.214 29.2411 113.217 28.9339 113.221 28.629C115.275 28.6336 117.327 28.6176 119.378 28.6382C119.385 28.9385 119.392 29.2388 119.401 29.5391C119.126 29.5711 118.846 29.5826 118.596 29.7064C118.193 29.7293 117.794 29.7385 117.393 29.7522C117.331 33.9975 117.368 38.2427 117.375 42.4857C118.046 42.5086 118.713 42.6209 119.387 42.637C119.39 42.99 119.387 43.3453 119.387 43.7006C117.482 43.7327 115.575 43.7143 113.67 43.7143C113.01 43.8129 113.256 43.0152 113.219 42.6255C113.872 42.6301 114.516 42.5063 115.17 42.4742C115.172 39.2215 115.167 35.9711 115.172 32.7207C112.815 35.5333 110.523 38.3963 108.185 41.225C107.864 41.5527 108.07 42.0662 108.013 42.4788C108.682 42.504 109.345 42.6278 110.019 42.6324C110.017 42.99 110.017 43.3499 110.014 43.7098C108.041 43.7143 106.065 43.7373 104.091 43.7006C103.653 43.547 103.91 42.9739 103.844 42.6324C104.545 42.6255 105.24 42.4972 105.943 42.4696C105.939 38.268 105.925 34.064 105.95 29.8623C105.26 29.6812 104.536 29.7064 103.841 29.5413C103.844 29.2388 103.846 28.9362 103.853 28.6336Z" fill="#FEFEFE"/>
<path d="M120.813 28.6336C124.453 28.6359 128.098 28.6038 131.738 28.6497C131.743 29.9196 131.747 31.1918 131.736 32.4617C131.337 32.4732 130.94 32.4778 130.546 32.4823C130.459 31.5929 130.193 30.7311 130.156 29.8371C128.428 29.8417 126.7 29.8394 124.971 29.8394C124.974 31.6457 124.971 33.4543 124.974 35.2628C126.026 35.2651 127.08 35.2628 128.132 35.2628C128.135 34.6439 128.268 34.0365 128.297 33.4199C128.643 33.4199 128.994 33.4199 129.345 33.4199C129.338 35.1276 129.359 36.833 129.331 38.5385C128.99 38.5935 128.65 38.5935 128.311 38.5362C128.295 37.8324 128.098 37.1448 128.141 36.4365C127.149 36.4479 126.156 36.409 125.166 36.4502C125.123 36.5007 125.033 36.5969 124.99 36.6451C124.939 38.5591 124.999 40.4754 124.962 42.3894C126.748 42.6462 128.584 42.4032 130.388 42.5109C130.551 41.6284 130.667 40.7321 130.897 39.8634C131.286 39.8657 131.678 39.8634 132.073 39.8657C132.022 41.1241 132.21 42.4353 131.986 43.6616C128.577 43.7946 125.152 43.6731 121.739 43.7212C121.427 43.6777 121.008 43.8381 120.811 43.5126C120.836 43.233 120.641 42.7539 121.022 42.6462C121.645 42.5637 122.273 42.5041 122.904 42.4674C122.897 38.268 122.883 34.0709 122.913 29.8715C122.225 29.672 121.496 29.7087 120.802 29.5414C120.804 29.2388 120.806 28.9362 120.813 28.6336Z" fill="#FEFEFE"/>
<path d="M3.09454 18.8939C3.20915 18.997 3.32376 19.1002 3.43838 19.201C3.51631 19.1185 3.67448 18.9535 3.75242 18.8709C4.03207 19.0268 4.30943 19.1827 4.58909 19.3386C5.15757 19.2331 5.73063 18.9351 6.32203 19.0474C7.54838 19.444 8.82058 18.9603 10.079 19.1277C10.2693 18.9833 10.4779 18.8618 10.6911 18.754C9.14608 23.1529 8.70139 27.8657 8.95124 32.5007C9.28132 38.6852 11.0509 44.8857 14.5695 50.0272C17.7076 54.5682 22.3724 58.2472 27.844 59.4117C32.4147 60.379 37.3912 60.01 41.5791 57.8392C45.0932 56.049 47.7522 52.9384 49.5883 49.4977C52.2083 49.4977 54.8261 49.4748 57.4461 49.5115C54.0077 55.414 48.5178 60.2002 42.0193 62.4237C35.8714 64.4982 29.123 64.6151 22.8285 63.1412C15.8372 61.5045 9.66413 57.0553 5.57246 51.1963C1.9805 46.1556 0.197134 39.9803 0 33.8279V30.2749C0.199426 26.4514 0.893978 22.6325 2.32434 19.0704C2.62004 19.2056 2.87678 19.1116 3.09454 18.8939Z" fill="#CA1704"/>
</svg>
