<svg width="78" height="79" viewBox="0 0 78 79" fill="none" xmlns="http://www.w3.org/2000/svg">
<path d="M67.7632 18.5282C67.5838 16.014 68.5822 13.6506 66.5958 11.6616C65.5546 10.6229 64.408 10.4006 63.1925 10.4006C62.2981 10.4006 61.366 10.5189 60.4079 10.5189C60.1817 10.5189 59.9542 10.5085 59.728 10.4916C56.3039 4.21772 55.897 -2.34472 52.2492 1.3005C48.1802 5.37083 45.6505 16.5678 49.8442 23.8219C46.6753 21.5867 42.8919 20.3878 39.014 20.3898C28.5894 20.3898 20.1421 28.8373 20.1421 39.2608C20.1421 43.3038 21.4239 47.0413 23.5897 50.1133C16.3371 45.8999 5.11949 48.431 1.04794 52.5001C-2.60112 56.1505 3.96251 56.5561 10.2388 59.9816C10.4195 62.4958 9.41725 64.8593 11.4062 66.8483C12.4488 67.8883 13.5941 68.1106 14.8096 68.1106C15.704 68.1106 16.6335 67.9923 17.5903 67.9923C17.8165 67.9923 18.0466 68.0027 18.2754 68.0196C21.6969 74.2908 22.1064 80.8533 25.7542 77.208C29.8231 73.1377 32.3516 61.9251 28.1462 54.6737C31.3217 56.9251 35.1188 58.1332 39.0114 58.1304C49.4347 58.1304 57.882 49.683 57.882 39.2595C57.882 35.2203 56.6029 31.4867 54.4423 28.4161C61.6962 32.6047 72.8865 30.0697 76.9515 26.0072C80.6019 22.3594 74.037 21.9524 67.7632 18.5282ZM63.1912 12.8875C64.1311 12.8875 64.4821 13.0669 64.837 13.4205C65.4103 13.9951 65.4233 14.584 65.3167 16.2493C65.2452 17.3699 65.1633 18.6426 65.4714 20.0479C66.2163 23.4462 68.3924 25.4625 70.6297 26.6572C68.2818 27.4931 65.8082 27.9209 63.316 27.9221C59.2873 27.9221 55.8736 26.7274 53.7013 24.5551C49.4945 20.3469 49.7181 12.7783 51.5901 7.61075C52.7835 9.85326 54.8011 12.0386 58.2109 12.7874C58.8869 12.9343 59.6032 13.0058 60.4066 13.0058C60.9734 13.0058 61.4973 12.9733 62.0043 12.9421C62.4307 12.9122 62.8311 12.8875 63.1912 12.8875ZM14.8122 65.6224C13.8736 65.6224 13.5226 65.4417 13.1664 65.0881C12.5931 64.5135 12.5801 63.9259 12.6867 62.2618C12.7595 61.1386 12.8401 59.8659 12.532 58.4606C11.7858 55.0624 9.60965 53.0461 7.37107 51.8514C9.71898 51.0156 12.1926 50.5878 14.6848 50.5865C18.7148 50.5865 22.1285 51.7825 24.3008 53.9548C28.5062 58.1629 28.284 65.7303 26.412 70.8978C25.2199 68.6553 23.201 66.4713 19.7937 65.7251C19.07 65.5706 18.3315 65.4961 17.5916 65.5028C17.0248 65.5028 16.5022 65.5379 15.9952 65.5691C15.5727 65.5977 15.1723 65.6224 14.8122 65.6224ZM46.9154 53.9652C48.7301 44.2593 41.562 41.3174 39.1609 39.4558C40.3319 41.2183 40.8566 43.3319 40.646 45.4375C40.4353 47.5431 39.5022 49.5108 38.0052 51.0064C37.0403 51.9747 35.8699 52.7138 34.5808 53.1688C33.2916 53.6238 31.9167 53.7831 30.5576 53.635C27.9387 52.0988 25.7867 49.8794 24.332 47.2142C34.2288 49.0173 37.0979 41.5124 38.9633 39.2855L38.9594 39.2712C35.3819 41.7672 30.4328 41.4357 27.2492 38.2507C26.2819 37.2845 25.545 36.1126 25.0933 34.8222C24.6416 33.5319 24.4867 32.1562 24.6401 30.7977C26.1757 28.186 28.3906 26.0394 31.049 24.5863C29.2043 34.4832 36.7014 37.342 38.9438 39.1997V39.1971C37.7319 37.4323 37.1758 35.2989 37.3722 33.167C37.5686 31.0352 38.505 29.0393 40.0189 27.5256C40.9874 26.5553 42.1618 25.8154 43.4551 25.3606C44.7483 24.9058 46.1273 24.7478 47.4899 24.8983C50.1102 26.4432 52.2606 28.6722 53.7104 31.3463C43.811 29.4964 40.9055 36.9221 39.0361 39.2101L39.0231 39.2465C39.0309 39.2569 39.0361 39.2673 39.0426 39.2738C42.6241 36.7622 47.5848 37.0872 50.7763 40.2787C51.7413 41.2433 52.477 42.4126 52.9291 43.6999C53.3811 44.9873 53.538 46.3599 53.388 47.716C51.8411 50.3507 49.6027 52.5118 46.9154 53.9652Z" fill="white"/>
</svg>
