<svg width="78" height="71" viewBox="0 0 78 71" fill="none" xmlns="http://www.w3.org/2000/svg">
<path d="M78 43.7593C78 44.3237 77.7725 44.865 77.3674 45.2641C76.9624 45.6632 76.4131 45.8874 75.8403 45.8874H69.3614V52.2716C69.3614 52.836 69.1338 53.3773 68.7288 53.7764C68.3238 54.1755 67.7745 54.3997 67.2017 54.3997C66.6289 54.3997 66.0796 54.1755 65.6746 53.7764C65.2696 53.3773 65.0421 52.836 65.0421 52.2716V45.8874H58.5631C57.9903 45.8874 57.441 45.6632 57.036 45.2641C56.631 44.865 56.4034 44.3237 56.4034 43.7593C56.4034 43.1949 56.631 42.6536 57.036 42.2546C57.441 41.8555 57.9903 41.6313 58.5631 41.6313H65.0421V35.247C65.0421 34.6826 65.2696 34.1413 65.6746 33.7422C66.0796 33.3431 66.6289 33.1189 67.2017 33.1189C67.7745 33.1189 68.3238 33.3431 68.7288 33.7422C69.1338 34.1413 69.3614 34.6826 69.3614 35.247V41.6313H75.8403C76.4131 41.6313 76.9624 41.8555 77.3674 42.2546C77.7725 42.6536 78 43.1949 78 43.7593ZM12.4904 13.2569H17.5296V18.2224C17.5296 18.7868 17.7571 19.3281 18.1621 19.7272C18.5672 20.1263 19.1165 20.3505 19.6892 20.3505C20.262 20.3505 20.8113 20.1263 21.2164 19.7272C21.6214 19.3281 21.8489 18.7868 21.8489 18.2224V13.2569H26.8881C27.4609 13.2569 28.0102 13.0327 28.4152 12.6336C28.8202 12.2345 29.0478 11.6932 29.0478 11.1288C29.0478 10.5644 28.8202 10.0231 28.4152 9.62401C28.0102 9.22491 27.4609 9.00071 26.8881 9.00071H21.8489V4.03519C21.8489 3.47079 21.6214 2.9295 21.2164 2.53041C20.8113 2.13132 20.262 1.90711 19.6892 1.90711C19.1165 1.90711 18.5672 2.13132 18.1621 2.53041C17.7571 2.9295 17.5296 3.47079 17.5296 4.03519V9.00071H12.4904C11.9176 9.00071 11.3683 9.22491 10.9633 9.62401C10.5583 10.0231 10.3307 10.5644 10.3307 11.1288C10.3307 11.6932 10.5583 12.2345 10.9633 12.6336C11.3683 13.0327 11.9176 13.2569 12.4904 13.2569ZM55.6835 58.6559H52.0841V55.1091C52.0841 54.5447 51.8566 54.0034 51.4516 53.6043C51.0465 53.2052 50.4972 52.981 49.9244 52.981C49.3517 52.981 48.8024 53.2052 48.3973 53.6043C47.9923 54.0034 47.7648 54.5447 47.7648 55.1091V58.6559H44.1654C43.5926 58.6559 43.0433 58.8801 42.6383 59.2792C42.2332 59.6783 42.0057 60.2196 42.0057 60.784C42.0057 61.3484 42.2332 61.8897 42.6383 62.2887C43.0433 62.6878 43.5926 62.912 44.1654 62.912H47.7648V66.4588C47.7648 67.0232 47.9923 67.5645 48.3973 67.9636C48.8024 68.3627 49.3517 68.5869 49.9244 68.5869C50.4972 68.5869 51.0465 68.3627 51.4516 67.9636C51.8566 67.5645 52.0841 67.0232 52.0841 66.4588V62.912H55.6835C56.2563 62.912 56.8056 62.6878 57.2106 62.2887C57.6157 61.8897 57.8432 61.3484 57.8432 60.784C57.8432 60.2196 57.6157 59.6783 57.2106 59.2792C56.8056 58.8801 56.2563 58.6559 55.6835 58.6559ZM54.3158 31.0618L16.0538 68.7997C15.5859 69.2609 15.0303 69.6267 14.4189 69.8763C13.8075 70.1258 13.1522 70.2543 12.4904 70.2543C11.8286 70.2543 11.1733 70.1258 10.5618 69.8763C9.95043 69.6267 9.39489 69.2609 8.92695 68.7997L1.47613 61.4579C1.00814 60.9968 0.636911 60.4493 0.383635 59.8469C0.13036 59.2444 0 58.5986 0 57.9465C0 57.2944 0.13036 56.6487 0.383635 56.0462C0.636911 55.4437 1.00814 54.8963 1.47613 54.4352L54.9996 1.6943C55.9493 0.771574 57.2294 0.254272 58.5631 0.254272C59.8968 0.254272 61.1769 0.771574 62.1265 1.6943L69.5773 9.03617C70.0453 9.49727 70.4165 10.0447 70.6698 10.6472C70.9231 11.2496 71.0535 11.8954 71.0535 12.5475C71.0535 13.1996 70.9231 13.8454 70.6698 14.4478C70.4165 15.0503 70.0453 15.5977 69.5773 16.0588L54.3158 31.0618ZM44.3453 18.2224L52.804 26.5574L66.5178 13.0441C66.5876 12.9809 66.6434 12.9042 66.6815 12.8187C66.7197 12.7332 66.7393 12.6409 66.7393 12.5475C66.7393 12.4541 66.7197 12.3618 66.6815 12.2763C66.6434 12.1908 66.5876 12.1141 66.5178 12.051L59.067 4.70908C59.0029 4.64028 58.9251 4.58535 58.8383 4.54777C58.7516 4.51019 58.6578 4.49078 58.5631 4.49078C58.4683 4.49078 58.3746 4.51019 58.2878 4.54777C58.2011 4.58535 58.1232 4.64028 58.0592 4.70908L44.3453 18.2224ZM49.7445 29.5721L41.2858 21.2372L4.53565 57.45C4.46582 57.5131 4.41007 57.5898 4.37194 57.6753C4.3338 57.7608 4.31411 57.8531 4.31411 57.9465C4.31411 58.0399 4.3338 58.1323 4.37194 58.2177C4.41007 58.3032 4.46582 58.3799 4.53565 58.4431L11.9865 65.785C12.0505 65.8538 12.1284 65.9087 12.2151 65.9463C12.3019 65.9838 12.3956 66.0032 12.4904 66.0032C12.5851 66.0032 12.6789 65.9838 12.7656 65.9463C12.8524 65.9087 12.9302 65.8538 12.9943 65.785L49.7445 29.5721Z" fill="white"/>
</svg>
