<svg width="82" height="78" viewBox="0 0 82 78" fill="none" xmlns="http://www.w3.org/2000/svg">
<path d="M45.9002 68.4033H35.4349C34.5872 68.4019 33.7746 68.0644 33.1754 67.4647C32.5763 66.865 32.2394 66.0522 32.2387 65.2045L31.6465 57.0975C28.394 55.4271 25.6637 52.8941 23.7545 49.7757C21.8452 46.6574 20.8306 43.0739 20.8218 39.4175C20.8218 28.4738 29.7252 19.5678 40.6714 19.5678C51.6177 19.5678 60.5211 28.4712 60.5211 39.4175C60.5108 43.0736 59.4956 46.6565 57.5865 49.7746C55.6775 52.8927 52.9479 55.426 49.6964 57.0975L49.099 65.2976C49.0964 66.9681 47.6638 68.4033 45.9002 68.4033ZM40.6688 22.1538C36.0919 22.1592 31.704 23.9798 28.4676 27.2162C25.2312 30.4526 23.4106 34.8405 23.4051 39.4175C23.4131 42.7116 24.3596 45.9351 26.1339 48.7106C27.9081 51.486 30.4366 53.6983 33.423 55.0883L34.1135 55.4089L34.8195 65.1114C34.822 65.5432 35.0962 65.8173 35.4349 65.8173H45.9002C46.2364 65.8173 46.5105 65.5432 46.5105 65.2045L47.219 55.4089L47.9121 55.0909C50.8981 53.6997 53.4262 51.4867 55.2003 48.711C56.9745 45.9353 57.9213 42.7117 57.93 39.4175C57.9245 34.841 56.1043 30.4535 52.8684 27.2171C49.6326 23.9808 45.2453 22.1599 40.6688 22.1538Z" fill="white"/>
<path d="M46.1874 77.0299H35.1481C34.301 77.0285 33.4891 76.6913 32.8904 76.0921C32.2917 75.4929 31.9551 74.6807 31.9544 73.8337V70.7874C31.9544 69.0238 33.387 67.5938 35.1481 67.5938H46.1874C47.951 67.5938 49.3836 69.0264 49.3836 70.7874V73.8337C49.383 74.6812 49.046 75.4937 48.4467 76.093C47.8475 76.6923 47.0349 77.0292 46.1874 77.0299ZM35.1506 70.1772C34.9895 70.1772 34.8349 70.2412 34.7209 70.3552C34.607 70.4691 34.543 70.6237 34.543 70.7849V73.8311C34.543 74.1673 34.8145 74.4414 35.1506 74.4414H46.19C46.5262 74.4414 46.8003 74.1673 46.8003 73.8311V70.7874C46.7996 70.626 46.735 70.4715 46.6206 70.3576C46.5063 70.2437 46.3514 70.1797 46.19 70.1797H35.1506V70.1772ZM39.3761 0H41.962V15.9888H39.3761V0ZM68.8997 13.1081L70.728 14.9364L59.4223 26.2395L57.594 24.4112L68.8997 13.1081ZM65.0441 40.2036H81.0329V42.7895H65.0441V40.2036ZM12.1436 13.1029L23.4467 24.4061L21.6184 26.2343L10.3153 14.9338L12.1436 13.1029ZM0 40.2036H15.9914V42.7895H0V40.2036Z" fill="white"/>
</svg>
