<svg width="17" height="17" viewBox="0 0 17 17" fill="none" xmlns="http://www.w3.org/2000/svg">
<path fill-rule="evenodd" clip-rule="evenodd" d="M1.0625 8.5C1.0625 8.3591 1.11847 8.22398 1.2181 8.12435C1.31773 8.02472 1.45285 7.96875 1.59375 7.96875L14.1238 7.96875L10.7801 4.62613C10.6804 4.52637 10.6243 4.39107 10.6243 4.25C10.6243 4.10893 10.6804 3.97363 10.7801 3.87388C10.8799 3.77412 11.0152 3.71808 11.1562 3.71808C11.2973 3.71808 11.4326 3.77412 11.5324 3.87388L15.7824 8.12387C15.8318 8.17322 15.8711 8.23185 15.8979 8.29639C15.9247 8.36093 15.9384 8.43012 15.9384 8.5C15.9384 8.56988 15.9247 8.63907 15.8979 8.70361C15.8711 8.76815 15.8318 8.82678 15.7824 8.87613L11.5324 13.1261C11.4326 13.2259 11.2973 13.2819 11.1562 13.2819C11.0152 13.2819 10.8799 13.2259 10.7801 13.1261C10.6804 13.0264 10.6243 12.8911 10.6243 12.75C10.6243 12.6089 10.6804 12.4736 10.7801 12.3739L14.1238 9.03125L1.59375 9.03125C1.45285 9.03125 1.31773 8.97528 1.2181 8.87565C1.11847 8.77602 1.0625 8.6409 1.0625 8.5V8.5Z" fill="white"/>
</svg>
