<svg width="30" height="30" viewBox="0 0 30 30" fill="none" xmlns="http://www.w3.org/2000/svg">
<path d="M13.4625 0H15.9281C20.6062 0.492187 25.0125 3.21094 27.3516 7.32188C29.8359 11.4844 29.9203 16.8281 27.8438 21.1781C28.5234 23.3156 29.3203 25.4156 30 27.5531V28.5984C29.4609 28.9688 28.9922 29.4469 28.6359 30H27.6094C25.4438 29.3438 23.3344 28.5234 21.1781 27.8438C16.8281 29.9203 11.475 29.8406 7.3125 27.3422C3.225 25.0172 0.529688 20.6531 0 16.0078V13.5234C0.370313 10.0828 1.81875 6.73125 4.30781 4.29844C6.72656 1.82344 10.05 0.39375 13.4625 0ZM11.2594 2.24063C5.52656 3.7125 1.31719 9.53906 1.81406 15.4547C2.06719 21.1641 6.60469 26.2922 12.2156 27.3094C15.2344 27.9609 18.3656 27.2625 21.0984 25.9312C23.5031 26.6672 25.8188 27.6797 28.2703 28.2562C27.6562 25.8094 26.6672 23.4844 25.9312 21.075C27.9937 17.1516 28.1578 12.2063 25.875 8.33438C23.1141 3.30469 16.7812 0.614063 11.2594 2.24063Z" fill="white"/>
<path d="M10.1244 12.1594C9.89938 9.71249 12.0838 7.41562 14.5353 7.49062C17.165 7.41093 19.4009 10.0641 18.8806 12.6422C18.6228 14.4656 17.1041 15.7828 15.4166 16.3078C15.1916 17.4937 16.0634 19.5047 14.5447 20.0016C14.3525 19.9031 13.9728 19.7016 13.7806 19.6031C13.4853 18.1172 13.6259 16.5656 13.7009 15.0656C14.3994 14.2406 15.815 14.6344 16.4713 13.6875C17.7463 12.4125 17.1556 9.98906 15.4447 9.43124C13.8603 8.77031 12.0416 9.99843 11.8916 11.6625C12.0463 12.7406 10.49 13.2844 10.1244 12.1594Z" fill="white"/>
<path d="M14.2547 21.2859C15.225 20.9578 15.9 22.4766 14.9437 22.9266C13.8375 23.5641 13.0641 21.6328 14.2547 21.2859Z" fill="white"/>
</svg>
