<svg width="432" height="210" viewBox="0 0 432 210" fill="none" xmlns="http://www.w3.org/2000/svg">
<path d="M73.4859 3.57941C94.0483 -1.56307 116.133 -1.24073 136.41 5.0412C156.733 11.3756 174.319 25.4162 185.796 43.25C175.151 43.31 164.506 43.2725 153.869 43.2725C148.779 36.211 142.715 29.7716 135.518 24.824C124.911 17.3727 111.852 13.707 98.9359 13.8719C85.4425 13.6695 71.6942 17.3727 60.7571 25.4312C48.613 34.2694 40.1422 47.388 34.9622 61.3312C34.265 61.6835 33.5829 62.0808 32.9607 62.5531C28.8452 62.0058 24.6847 63.5876 20.6742 62.2907C18.7401 61.9234 16.8661 62.8979 15.007 63.2427C14.0924 62.733 13.1854 62.2232 12.2708 61.7135C12.0159 61.9834 11.4987 62.5231 11.2438 62.793C10.869 62.4631 10.4942 62.1258 10.1194 61.7885C9.4072 62.5006 8.56761 62.808 7.60059 62.3657C18.8301 33.992 43.6804 10.9633 73.4859 3.57941Z" fill="#CA1704"/>
<path d="M96.3364 60.8289C99.2974 60.4166 102.611 60.1542 105.295 61.7659C112.409 65.5216 112.948 76.9985 106.726 81.8261C101.411 85.9341 92.5882 84.4423 89.5372 78.2879C88.3078 76.4737 88.5102 74.2398 88.2403 72.1708C88.008 67.0958 91.2164 61.9533 96.3364 60.8289ZM92.2884 68.3477C91.6662 71.5561 91.8611 74.997 93.5777 77.8531C95.152 80.057 97.5058 82.2159 100.452 81.7811C104.058 82.0285 106.404 78.5202 106.959 75.3493C108.181 70.0044 105.13 62.688 98.9676 62.4706C95.7217 62.8229 93.1804 65.2742 92.2884 68.3477Z" fill="#FEFEFE"/>
<path d="M112.039 61.0688C119.565 60.7989 127.114 61.0088 134.656 60.9713C134.7 61.4136 134.798 62.3056 134.843 62.7479C133.696 62.7929 132.549 62.8304 131.41 62.8679C131.432 69.0598 131.425 75.2593 131.417 81.4588C132.646 81.4813 135.623 81.0765 134.581 83.2204C131.455 83.3254 128.321 83.2279 125.188 83.2579C125.188 82.8156 125.188 81.931 125.188 81.4963C126.102 81.4888 127.017 81.4888 127.931 81.4888C127.909 75.4392 127.961 69.3822 127.901 63.3326C124.88 63.3626 121.859 63.3401 118.838 63.3551C118.831 69.3972 118.846 75.4392 118.831 81.4888C119.528 81.4888 120.915 81.4888 121.612 81.4888C121.604 81.931 121.589 82.8156 121.589 83.2579C118.321 83.1979 115.045 83.4153 111.784 83.108C111.919 82.7032 112.189 81.9011 112.324 81.5038C113.336 81.4963 114.355 81.4963 115.375 81.4888C115.322 75.5442 115.457 69.5921 115.322 63.6475C114.918 62.1782 112.939 63.1078 111.912 62.7629C111.942 62.3431 112.009 61.496 112.039 61.0688Z" fill="#FEFEFE"/>
<path d="M219.837 60.5815C220.28 60.5965 221.164 60.6265 221.607 60.6415C223.93 67.1708 226.382 73.6626 228.736 80.1844C228.923 81.7062 230.61 81.8261 231.817 81.3463C231.832 82.0135 231.847 82.6807 231.862 83.3553C228.758 83.1679 225.647 83.2954 222.536 83.2429C222.094 81.0465 224.058 81.4888 225.52 81.5262C224.643 79.5772 223.945 77.5607 223.278 75.5367C221.007 75.5442 218.735 75.5517 216.472 75.5142C215.632 77.4707 214.815 79.4423 214.148 81.4738C214.77 81.4813 216.007 81.4963 216.629 81.5038C216.629 81.9385 216.644 82.8081 216.652 83.2429C214.095 83.2729 211.532 83.1979 208.983 83.3479C208.975 82.6807 208.975 82.006 208.968 81.3388C209.582 81.3538 210.819 81.3913 211.434 81.4063C214.583 74.6371 217.056 67.5231 219.837 60.5815ZM217.206 73.3253C218.945 73.3253 220.692 73.3252 222.431 73.3178C221.742 70.9939 220.64 68.8125 220.137 66.4361C218.975 68.655 218.151 71.0164 217.206 73.3253Z" fill="#FEFEFE"/>
<path d="M237.22 61.0687C242.812 60.7764 248.435 61.0612 254.034 60.9338C254.064 61.3986 254.124 62.3431 254.147 62.8154C253.097 62.8229 252.04 62.8304 250.991 62.8304C250.983 69.0373 250.998 75.2443 250.991 81.4513C252.46 81.5337 254.619 80.964 254.244 83.2354C251.051 83.2429 247.857 83.3179 244.672 83.2204C243.427 81.0465 246.118 81.4738 247.408 81.4588C247.408 75.4242 247.408 69.3897 247.4 63.3551C245.871 63.3476 244.334 63.3476 242.805 63.3551C242.67 69.3597 242.415 75.7241 239.686 81.1964C238.442 84.2249 234.791 84.1874 232.16 83.2504C232.205 82.5982 232.265 81.9535 232.333 81.3088C232.655 80.919 233.307 80.1319 233.629 79.7421C234.312 78.6551 235.481 80.0794 236.208 80.3793C238.749 79.015 238.794 75.964 239.656 73.5651C240.159 71.6386 239.537 69.4571 240.511 67.6805C240.586 66.0613 240.579 64.4496 240.571 62.8304C239.424 62.8229 238.277 62.8229 237.138 62.8079C237.16 62.3731 237.198 61.5035 237.22 61.0687Z" fill="#FEFEFE"/>
<path d="M288.73 60.9339C291.878 60.9713 295.027 60.9339 298.175 60.9638C298.22 61.4136 298.303 62.3057 298.348 62.7555C297.231 62.7929 296.121 62.8304 295.012 62.8529C295.012 69.0524 295.019 75.2444 295.012 81.4438C296.429 81.4888 298.565 81.0765 298.483 83.1905C295.199 83.3104 291.908 83.2579 288.625 83.2354C288.625 82.8007 288.617 81.9311 288.617 81.4963C289.592 81.4963 290.567 81.4888 291.549 81.4888C291.549 78.5203 291.549 75.5517 291.549 72.5757C288.318 72.5757 285.094 72.5757 281.863 72.5757C281.863 75.5292 281.863 78.4828 281.863 81.4438C283.228 81.4438 285.139 81.2114 284.997 83.198C281.713 83.3029 278.43 83.2654 275.147 83.2279C275.147 82.7932 275.147 81.9311 275.147 81.5038C276.204 81.4963 277.276 81.4888 278.34 81.4813C278.243 75.2668 278.527 69.0374 278.19 62.8304C277.148 62.8229 276.114 62.8079 275.079 62.7929C275.117 62.3582 275.184 61.4736 275.222 61.0388C278.385 60.8889 281.571 60.8814 284.734 61.0463C284.764 61.4811 284.824 62.3582 284.862 62.8004C283.857 62.8154 282.86 62.8229 281.863 62.8379C281.863 65.3492 281.863 67.853 281.863 70.3642C285.094 70.3717 288.318 70.3642 291.549 70.3642C291.549 67.853 291.549 65.3492 291.556 62.8454C290.559 62.8304 289.562 62.8154 288.573 62.7929C288.617 62.3282 288.692 61.3986 288.73 60.9339Z" fill="#FEFEFE"/>
<path d="M300.012 69.2173C301.069 65.0943 304.442 61.4436 308.708 60.664C311.564 60.4915 314.705 60.2816 317.201 61.9758C320.889 64.0448 322.801 68.4302 322.336 72.5756C322.644 75.979 320.987 79.2549 318.521 81.5113C313.768 85.102 306.144 84.6522 302.291 79.922C299.825 76.916 299.727 72.9055 300.012 69.2173ZM306.069 64.5021C302.726 68.6251 302.996 74.892 306.174 79.015C308.356 81.8186 312.973 82.8981 315.717 80.2894C318.723 77.5007 319.098 73.0329 318.348 69.2173C317.486 67.1258 316.279 65.2142 314.63 63.6625C311.856 62.1332 308.46 62.3806 306.069 64.5021Z" fill="#FEFEFE"/>
<path d="M324.12 60.9789C329.63 60.9489 335.14 60.9189 340.65 60.9864C340.657 62.9654 340.717 64.952 340.612 66.931C340.05 66.946 338.925 66.9685 338.363 66.9835C338.258 65.7691 338.123 64.5547 338.003 63.3403C335.62 63.3553 333.236 63.3553 330.859 63.3478C330.859 65.829 330.852 68.3028 330.859 70.7841C332.269 70.7841 333.685 70.7841 335.102 70.7841C335.102 70.087 335.102 68.7076 335.11 68.018C335.59 68.0405 336.564 68.0779 337.044 68.1004C337.021 70.7017 337.044 73.2954 336.999 75.8966C336.572 75.9416 335.717 76.0391 335.29 76.0915C335.14 74.9896 335.155 73.8651 334.847 72.7931C333.558 72.3733 332.171 72.6432 330.852 72.5832C330.859 75.5518 330.867 78.5203 330.852 81.4964C333.288 81.4814 335.724 81.4664 338.168 81.5339C338.513 80.1171 338.828 78.6853 338.963 77.2235C339.48 77.246 340.507 77.2759 341.024 77.2984C341.062 79.2775 341.062 81.249 341.054 83.228C335.32 83.2355 329.577 83.3555 323.843 83.1681C323.993 82.7483 324.278 81.9087 324.427 81.4889C325.402 81.4889 326.384 81.4889 327.366 81.4964C327.366 75.2894 327.344 69.0824 327.381 62.8755C326.227 62.838 325.08 62.793 323.94 62.748C323.985 62.3058 324.075 61.4212 324.12 60.9789Z" fill="#FEFEFE"/>
<path d="M135.7 60.9937C142.012 60.9038 148.323 60.9713 154.635 60.9563C154.68 62.9503 154.68 64.9443 154.673 66.9383C153.931 66.9683 153.196 66.9908 152.454 67.0133C152.274 65.7914 152.094 64.577 151.967 63.3476C150.28 63.3476 148.601 63.3476 146.922 63.3551C146.914 69.3971 146.914 75.4467 146.922 81.4887C148.031 81.4887 149.141 81.4887 150.257 81.4887C150.22 81.9235 150.138 82.7856 150.1 83.2129C146.794 83.3253 143.496 83.2354 140.197 83.2429C140.197 82.8081 140.197 81.9385 140.197 81.5037C141.247 81.4962 142.304 81.4887 143.361 81.4812C143.353 75.4392 143.361 69.3971 143.353 63.3476C141.772 63.3476 140.182 63.3476 138.601 63.3626C138.466 64.622 138.158 65.8439 137.746 67.0433C137.244 67.0283 136.247 67.0058 135.745 66.9908C135.677 64.9893 135.685 62.9953 135.7 60.9937Z" fill="#FEFEFE"/>
<path d="M155.782 61.0013C158.915 60.9114 162.049 60.9039 165.182 61.0088C165.235 61.4586 165.332 62.3657 165.385 62.8155C164.665 62.823 163.226 62.8305 162.499 62.8305C162.484 67.2833 162.536 71.7286 162.469 76.1739C164.5 73.5202 166.816 71.1064 168.818 68.4227C170.107 66.6086 172.229 65.2068 172.574 62.8604C171.524 62.8305 170.467 62.808 169.425 62.778C169.455 62.3507 169.53 61.4811 169.56 61.0538C172.746 60.8364 175.954 60.9639 179.148 61.0013C179.14 61.4511 179.133 62.3582 179.133 62.808C178.121 62.8155 177.109 62.823 176.097 62.8305C175.782 69.0299 176.052 75.2369 175.954 81.4439C177.401 81.5488 179.575 80.9866 179.298 83.2205C176.029 83.2804 172.754 83.273 169.485 83.228C169.485 82.8007 169.485 81.9386 169.485 81.5113C170.46 81.4963 171.434 81.4888 172.416 81.4813C172.409 76.9086 172.439 72.3283 172.409 67.7555C169.185 71.7136 165.977 75.6867 162.716 79.6147C162.371 80.1695 162.559 80.8891 162.461 81.5113C163.166 81.4963 164.583 81.4663 165.287 81.4588C165.295 82.0585 165.302 82.6583 165.31 83.2655C162.056 83.2505 158.803 83.273 155.557 83.243C155.22 80.9341 157.431 81.5488 158.93 81.4588C158.945 75.2519 158.938 69.0374 158.938 62.8305C157.828 62.823 156.719 62.823 155.609 62.823C155.654 62.3657 155.737 61.4586 155.782 61.0013Z" fill="#FEFEFE"/>
<path d="M180.646 60.9563C183.068 60.9488 185.489 60.9488 187.91 60.9563C189.882 66.5111 192.491 71.811 194.44 77.3733C196.861 71.9909 198.833 66.3987 201.149 60.9638C203.563 60.9413 205.984 60.9488 208.398 60.9563C208.398 61.4136 208.398 62.3432 208.398 62.8004C207.401 62.8304 206.404 62.8679 205.414 62.9054C205.167 69.1123 205.369 75.3268 205.309 81.5338C206.127 81.4888 207.761 81.4063 208.578 81.3614C208.57 82.021 208.563 82.6807 208.563 83.3479C205.227 83.168 201.884 83.2879 198.548 83.2579C198.548 82.8156 198.548 81.9311 198.548 81.4888C199.597 81.4888 200.654 81.4888 201.704 81.4888C201.659 76.4363 201.816 71.3837 201.614 66.3312C198.945 72.0509 196.734 78.018 194.425 83.8951C193.465 83.7152 192.708 83.2354 192.551 82.2084C190.407 76.4438 187.865 70.844 185.654 65.1018C185.864 70.5741 185.669 76.0539 185.766 81.5338C186.449 81.5113 187.805 81.4513 188.48 81.4288C188.51 82.036 188.54 82.6507 188.578 83.2579C185.931 83.2579 183.293 83.2579 180.646 83.2579C180.646 82.8156 180.654 81.9311 180.654 81.4888C181.561 81.4888 182.476 81.4888 183.39 81.4888C183.39 75.2743 183.375 69.0599 183.398 62.8529C182.483 62.8379 181.569 62.8229 180.654 62.8154C180.654 62.3507 180.646 61.4211 180.646 60.9563Z" fill="#FEFEFE"/>
<path d="M256.067 61.0088C259.223 60.8739 262.386 60.9863 265.542 60.9563C265.55 61.4211 265.565 62.3581 265.572 62.8229C264.493 62.8229 263.421 62.8229 262.349 62.8304C262.349 65.1842 262.356 67.5306 262.319 69.8845C265.048 69.877 267.821 69.7645 270.37 70.9264C271.689 71.8335 272.611 73.1379 273.436 74.4947C273.346 76.4887 273.818 78.7076 272.544 80.4468C271.532 82.2459 269.373 82.6807 267.551 83.2054C263.691 83.3629 259.823 83.1979 255.962 83.2654C255.97 82.6582 255.977 82.051 255.985 81.4513C256.682 81.4663 258.069 81.4963 258.766 81.5113C258.758 75.2818 258.766 69.0599 258.766 62.8379C258.039 62.8304 256.592 62.8154 255.872 62.8079C255.917 62.3581 256.015 61.4586 256.067 61.0088ZM262.349 72.3283C262.349 75.3868 262.349 78.4453 262.349 81.5038C263.009 81.4888 264.335 81.4588 264.995 81.4438C266.644 80.7916 268.878 80.4393 269.328 78.3703C269.41 76.7061 269.748 74.5172 268.084 73.4902C266.494 72.0659 264.32 72.2983 262.349 72.3283Z" fill="#FEFEFE"/>
<path d="M85.9604 93.6254C93.0294 93.6104 100.098 93.6404 107.168 93.6104C112.16 93.6029 117.512 94.7049 121.156 98.3631C122.715 100.095 123.405 102.329 124.154 104.48C124.169 106.459 124.162 108.438 124.177 110.417C122.67 115.934 117.842 119.87 112.445 121.302C108.269 122.771 103.832 121.849 99.6562 120.912C99.6487 126.857 99.6637 132.801 99.6487 138.753C102.19 139.031 104.731 139.428 107.295 139.383C107.302 140.575 107.302 141.767 107.295 142.966C100.166 142.929 93.0369 143.056 85.9079 142.899C85.9079 141.752 85.9004 140.612 85.9004 139.48C88.2392 139.361 90.5631 138.926 92.9095 138.963C92.9769 125.327 92.9994 111.684 92.902 98.0557C92.7445 97.8683 92.4222 97.4935 92.2648 97.3061C90.1208 97.2911 88.0069 97.0437 85.9154 96.6014C85.9229 95.6119 85.9379 94.6149 85.9604 93.6254ZM99.6337 97.8233C99.8811 104.57 99.2589 111.437 99.9335 118.116C102.205 118.206 104.746 118.783 106.868 117.764C109.889 117.674 112.917 116.287 114.664 113.768C116.613 111.069 116.74 107.494 116.118 104.323C113.914 97.7034 105.511 97.0287 99.6337 97.8233Z" fill="#FEFEFE"/>
<path d="M128.323 93.6478C140.242 93.6103 152.162 93.5953 164.073 93.6553C164.118 97.8307 164.141 102.006 164.058 106.182C162.806 106.204 161.554 106.227 160.303 106.249C159.665 103.49 158.998 100.702 158.901 97.8607C153.338 97.216 147.686 97.7633 142.079 97.5834C142.086 103.498 142.079 109.405 142.086 115.32C145.467 115.305 148.848 115.372 152.221 115.252C152.109 113.213 152.844 111.294 153.016 109.293C154.133 109.3 155.258 109.308 156.382 109.323C156.307 114.72 156.487 120.125 156.307 125.522C155.587 126.639 154.103 126.077 153.016 126.287C152.926 123.903 152.154 121.609 152.132 119.218C148.781 119.105 145.43 119.173 142.079 119.158C142.124 125.597 142.011 132.037 142.131 138.468L142.626 138.933C148.196 139.046 153.766 138.896 159.336 139.001C160.355 136.227 160.662 133.243 161.112 130.342C162.514 130.357 163.916 130.38 165.325 130.44C165.34 134.128 165.363 137.816 165.34 141.504C165.46 142.569 164.47 143.221 163.488 142.959C152.019 142.944 140.542 143.026 129.073 142.921C127.768 142.224 128.436 140.612 128.286 139.443C130.602 139.39 132.888 138.971 135.205 138.918C135.205 125.117 135.212 111.309 135.205 97.5084C132.873 97.291 130.557 97.0136 128.263 96.5938C128.278 95.6118 128.301 94.6298 128.323 93.6478Z" fill="#FEFEFE"/>
<path d="M170.325 93.6628C176.944 93.6028 183.563 93.5878 190.182 93.6628C190.212 94.6298 190.242 95.5968 190.272 96.5638C188.263 96.9462 186.254 97.3809 184.2 97.2535C183.983 111.159 184.17 125.065 184.103 138.971C189.71 138.843 195.34 139.225 200.932 138.768C200.917 125.949 200.91 113.131 200.94 100.312C200.745 99.3675 201.397 97.6733 200.13 97.321C198.368 97.246 196.607 97.0811 194.905 96.6163C194.905 95.6193 194.905 94.6223 194.913 93.6253C201.18 93.6178 207.454 93.6253 213.728 93.6253C213.728 94.6223 213.736 95.6193 213.736 96.6238C211.757 97.0211 209.755 97.291 207.739 97.351C207.536 111.227 207.679 125.102 207.664 138.978C213.091 138.926 218.519 139.031 223.946 138.941C224.096 138.783 224.381 138.476 224.531 138.318C224.621 124.743 224.516 111.167 224.576 97.5908C222.507 97.246 220.393 97.1261 218.369 96.5563C218.384 95.5893 218.406 94.6298 218.429 93.6703C224.898 93.5653 231.36 93.6478 237.829 93.6253C237.837 94.6298 237.837 95.6268 237.837 96.6313C235.76 97.1186 233.639 97.3809 231.502 97.231C231.315 111.114 231.472 125.005 231.42 138.896C233.549 139.038 235.655 139.413 237.799 139.375C237.829 140.575 237.829 141.782 237.799 142.989C215.67 142.914 193.533 143.026 171.397 142.936C169.725 142.696 170.392 140.612 170.287 139.435C172.604 139.398 174.897 138.963 177.214 138.911C177.236 125.155 177.154 111.392 177.259 97.6283C174.935 97.1635 172.559 97.0736 170.242 96.5788C170.265 95.6043 170.295 94.6298 170.325 93.6628Z" fill="#FEFEFE"/>
<path d="M242.529 93.6254C254.388 93.5954 266.255 93.6704 278.114 93.5879C278.256 93.8878 278.541 94.4875 278.684 94.7948C278.766 98.2881 278.744 101.789 278.699 105.29C277.897 106.909 275.903 106.009 274.501 106.212C273.969 103.356 273.496 100.5 272.994 97.6434C267.537 97.5085 262.079 97.6209 256.622 97.5835C256.614 103.491 256.637 109.39 256.614 115.297C259.913 115.335 263.219 115.327 266.525 115.305C266.622 113.296 266.907 111.302 266.997 109.3C268.174 109.293 269.358 109.293 270.543 109.293C270.535 114.922 270.55 120.552 270.535 126.182C269.343 126.197 268.106 126.354 266.997 125.807C266.944 123.581 266.547 121.384 266.532 119.158C263.226 119.15 259.92 119.158 256.614 119.158C256.629 125.755 256.607 132.359 256.629 138.963C262.342 138.978 268.061 138.956 273.781 138.971C274.726 136.167 274.628 133.116 275.693 130.335C276.952 130.357 278.219 130.38 279.493 130.41C279.546 134.585 279.553 138.761 279.486 142.929C267.544 142.989 255.595 142.996 243.646 142.929C241.854 142.914 242.439 140.47 242.836 139.405C245.078 139.428 247.282 139.001 249.515 138.918C249.508 125.117 249.56 111.317 249.493 97.516C247.147 97.2836 244.8 97.0512 242.484 96.6164C242.491 95.6194 242.506 94.6224 242.529 93.6254Z" fill="#FEFEFE"/>
<path d="M284.941 93.6479C291.388 93.6404 297.85 93.543 304.297 93.6854C305.646 93.7979 304.867 95.6644 305.062 96.5265C303.023 97.0513 300.946 97.3961 298.832 97.2162C298.405 103.071 298.757 108.963 298.652 114.833C306.164 114.833 313.675 114.833 321.186 114.833C321.194 109.075 321.164 103.311 321.194 97.5535C319.057 97.2612 316.891 97.1637 314.792 96.624C314.792 95.627 314.799 94.6225 314.807 93.6254C321.524 93.6479 328.233 93.573 334.95 93.6629C334.972 94.6374 334.987 95.612 335.009 96.594C332.701 97.0588 330.347 97.2012 328.03 97.591C328.098 111.369 328.045 125.14 328.06 138.918C330.369 138.978 332.656 139.383 334.972 139.436C334.972 140.597 334.965 141.759 334.95 142.929C328.233 143.011 321.516 142.944 314.799 142.966C314.799 141.774 314.799 140.59 314.799 139.398C316.936 139.406 319.042 139.008 321.179 138.926C321.186 132.247 321.179 125.567 321.179 118.888C313.682 118.873 306.179 118.918 298.675 118.873C298.607 125.552 298.667 132.239 298.645 138.918C300.699 139.076 302.798 139.128 304.807 139.615C305.414 140.635 305.534 143.319 303.637 142.959C297.4 142.966 291.163 142.996 284.934 142.936C284.919 141.759 284.911 140.59 284.919 139.428C287.13 139.398 289.319 138.993 291.531 138.941C291.501 125.058 291.681 111.167 291.433 97.2912C289.237 97.2762 287.025 97.2387 284.896 96.609C284.904 95.627 284.919 94.6375 284.941 93.6479Z" fill="#FEFEFE"/>
<path d="M339.629 93.6403C346.339 93.6103 353.055 93.6103 359.772 93.6403C359.78 94.6298 359.795 95.6194 359.817 96.6089C357.666 97.1936 355.439 97.2236 353.25 97.5534C353.183 108.026 353.363 118.506 353.16 128.978C360.897 119.233 368.963 109.735 376.669 99.9672C376.654 99.1651 376.639 98.3555 376.631 97.5534C374.495 97.2836 372.358 97.0137 370.245 96.6314C370.245 95.6269 370.252 94.6224 370.267 93.6253C376.984 93.6403 383.693 93.5879 390.402 93.6553C390.425 94.6373 390.447 95.6194 390.477 96.6014C389.578 96.7063 388.663 96.7438 387.846 97.1486C386.527 97.2236 385.222 97.2536 383.91 97.2985C383.708 111.182 383.828 125.065 383.85 138.941C386.047 139.016 388.228 139.383 390.432 139.435C390.44 140.59 390.432 141.752 390.432 142.914C384.203 143.019 377.966 142.959 371.736 142.959C369.577 143.281 370.379 140.672 370.26 139.398C372.396 139.413 374.502 139.008 376.639 138.903C376.646 128.266 376.631 117.636 376.646 107.006C368.94 116.204 361.444 125.567 353.798 134.818C352.748 135.89 353.423 137.569 353.235 138.918C355.424 139.001 357.591 139.405 359.795 139.42C359.787 140.59 359.787 141.767 359.78 142.944C353.325 142.959 346.863 143.034 340.409 142.914C338.977 142.411 339.817 140.537 339.599 139.42C341.893 139.398 344.165 138.978 346.466 138.888C346.451 125.147 346.406 111.399 346.489 97.6584C344.232 97.0662 341.863 97.1486 339.592 96.6089C339.6 95.6194 339.607 94.6298 339.629 93.6403Z" fill="#FEFEFE"/>
<path d="M395.093 93.6404C406.997 93.6479 418.916 93.543 430.82 93.6929C430.835 97.8459 430.85 102.006 430.813 106.159C429.508 106.197 428.212 106.212 426.922 106.227C426.637 103.318 425.768 100.5 425.648 97.576C419.996 97.591 414.343 97.5835 408.691 97.5835C408.699 103.491 408.691 109.405 408.699 115.32C412.139 115.327 415.588 115.32 419.029 115.32C419.036 113.296 419.471 111.309 419.568 109.293C420.7 109.293 421.847 109.293 422.994 109.293C422.972 114.878 423.039 120.455 422.949 126.032C421.832 126.212 420.723 126.212 419.613 126.025C419.561 123.723 418.916 121.474 419.059 119.158C415.813 119.195 412.567 119.068 409.328 119.203C409.186 119.368 408.894 119.683 408.751 119.84C408.586 126.1 408.781 132.366 408.661 138.626C414.501 139.466 420.505 138.671 426.405 139.023C426.937 136.137 427.319 133.206 428.069 130.365C429.343 130.372 430.625 130.365 431.915 130.372C431.75 134.488 432.365 138.776 431.63 142.786C420.483 143.221 409.283 142.824 398.121 142.981C397.102 142.839 395.73 143.364 395.085 142.299C395.168 141.385 394.531 139.818 395.775 139.466C397.814 139.196 399.868 139.001 401.929 138.881C401.907 125.148 401.862 111.422 401.959 97.6884C399.711 97.0363 397.327 97.1562 395.055 96.609C395.063 95.6195 395.07 94.6299 395.093 93.6404Z" fill="#FEFEFE"/>
<path d="M10.121 61.7885C10.4958 62.1258 10.8707 62.4631 11.2455 62.793C11.5004 62.5231 12.0176 61.9834 12.2725 61.7135C13.187 62.2232 14.0941 62.733 15.0086 63.2427C16.8677 62.8979 18.7418 61.9234 20.6759 62.2907C24.6864 63.5876 28.8469 62.0058 32.9624 62.5531C33.5846 62.0808 34.2667 61.6835 34.9639 61.3312C29.9113 75.7166 28.4571 91.1291 29.2742 106.287C30.3536 126.512 36.1408 146.789 47.6477 163.604C57.9102 178.454 73.1652 190.486 91.0589 194.294C106.007 197.457 122.281 196.25 135.977 189.151C147.469 183.297 156.165 173.124 162.169 161.872C170.737 161.872 179.298 161.797 187.867 161.917C176.622 181.22 158.668 196.872 137.416 204.144C117.311 210.928 95.2419 211.31 74.657 206.49C51.7931 201.138 31.6055 186.587 18.2246 167.427C6.47781 150.942 0.645661 130.747 0.000976562 110.627V99.0077C0.653158 86.5039 2.92455 74.015 7.60226 62.3657C8.56929 62.808 9.40888 62.5006 10.121 61.7885Z" fill="#CA1704"/>
</svg>
