<svg width="16" height="14" viewBox="0 0 16 14" fill="none" xmlns="http://www.w3.org/2000/svg">
<path d="M0.142578 4.23141L7.75258 8.18927C7.82891 8.22896 7.91368 8.24968 7.99972 8.24968C8.08576 8.24968 8.17053 8.22896 8.24686 8.18927L15.8569 4.23213V11.1071C15.8569 11.7001 15.63 12.2706 15.2228 12.7016C14.8156 13.1326 14.2589 13.3914 13.6669 13.425L13.5354 13.4286H2.46401C1.87105 13.4286 1.30056 13.2017 0.869556 12.7945C0.438555 12.3873 0.17972 11.8306 0.14615 11.2386L0.142578 11.1071V4.23141ZM2.46401 0.571411H13.5354C14.1284 0.571372 14.6989 0.798235 15.1299 1.20546C15.5609 1.61269 15.8197 2.16941 15.8533 2.76141L15.8569 2.89284V3.02427L7.99972 7.10998L0.142578 3.02427V2.89284C0.142539 2.29988 0.369402 1.72939 0.776629 1.29839C1.18386 0.867388 1.74057 0.608553 2.33258 0.574983L2.46401 0.571411H13.5354H2.46401Z" fill="white"/>
</svg>
