<svg width="18" height="18" viewBox="0 0 18 18" fill="none" xmlns="http://www.w3.org/2000/svg">
<path d="M11.7058 12.425L13.1058 11.025C13.2943 10.8388 13.5329 10.7113 13.7925 10.658C14.0521 10.6048 14.3216 10.628 14.5683 10.725L16.2745 11.4062C16.5238 11.5074 16.7375 11.6801 16.8888 11.9026C17.04 12.125 17.1221 12.3873 17.1245 12.6562V15.7812C17.1231 15.9642 17.0846 16.145 17.0115 16.3128C16.9383 16.4805 16.8319 16.6317 16.6988 16.7572C16.5657 16.8828 16.4085 16.9801 16.2368 17.0433C16.065 17.1065 15.8823 17.1343 15.6995 17.125C3.74328 16.3812 1.33078 6.25624 0.874534 2.38124C0.853355 2.19096 0.872706 1.99834 0.931314 1.81606C0.989923 1.63379 1.08646 1.46599 1.21458 1.32371C1.34269 1.18142 1.49948 1.06787 1.67463 0.990535C1.84978 0.913197 2.03932 0.87382 2.23078 0.874995H5.24953C5.51892 0.875792 5.7819 0.957162 6.00466 1.10864C6.22742 1.26011 6.39976 1.47477 6.49953 1.725L7.18078 3.43125C7.28094 3.67691 7.3065 3.94665 7.25425 4.20675C7.20201 4.46686 7.07428 4.70581 6.88703 4.89375L5.48703 6.29375C5.48703 6.29375 6.29328 11.75 11.7058 12.425Z" fill="white"/>
</svg>
