<svg width="76" height="76" viewBox="0 0 76 76" fill="none" xmlns="http://www.w3.org/2000/svg">
<path d="M27.2504 0H28.2419C30.4537 0.155859 32.6268 1.03461 34.2344 2.57539C36.1077 4.3032 37.2358 6.81031 37.2625 9.36047C37.2714 11.2367 37.2684 13.1115 37.2625 14.9877C37.2477 17.3612 36.268 19.6828 34.6559 21.4136C36.268 21.418 37.8785 21.4077 39.4905 21.418C40.5741 21.4284 41.6592 21.6303 42.6552 22.0637C45.434 23.2275 47.4037 26.079 47.4765 29.0967C47.5077 33.0021 47.4735 36.9075 47.4928 40.8129C47.4898 41.3116 47.518 41.8698 47.1796 42.2794C46.8486 42.7426 46.2563 42.8955 45.713 42.8702C41.7557 42.8643 37.7969 42.8732 33.838 42.8673C33.0632 42.9252 32.2898 42.3477 32.2171 41.558C32.0865 40.7045 32.8346 39.8644 33.6985 39.9044C37.3055 39.8926 40.9126 39.903 44.5196 39.9C44.5196 36.3939 44.5241 32.8893 44.5166 29.3832C44.5389 27.4105 43.2653 25.509 41.438 24.7698C40.0561 24.179 38.5227 24.4417 37.0651 24.3823C37.0547 26.6965 37.0755 29.0106 37.0577 31.3248C37.0799 32.1026 36.3941 32.8032 35.6163 32.8017C35.1413 32.8329 34.7198 32.5687 34.3962 32.2466C32.6817 30.59 30.9613 28.9379 29.238 27.2902C29.2305 28.6826 29.2365 30.0749 29.238 31.4673C29.2395 31.8799 29.1979 32.3237 28.9233 32.6548C28.4676 33.2812 27.4938 33.4222 26.8808 32.9472C26.4518 32.6533 26.2484 32.1293 26.2677 31.6202C26.2603 30.1773 26.2722 28.733 26.2662 27.2887C24.4909 28.9839 22.732 30.6984 20.9492 32.3861C20.4698 32.8655 19.6563 32.9427 19.0997 32.5538C18.6395 32.2644 18.4139 31.7107 18.4391 31.1793C18.4362 28.9141 18.4436 26.649 18.4362 24.3838C17.124 24.4358 15.7747 24.228 14.4966 24.6124C12.5091 25.2121 11.0143 27.1492 10.9905 29.2333C10.9712 32.7884 10.9846 36.3449 10.9846 39.9C14.5961 39.9044 18.2076 39.8911 21.8191 39.9059C22.6845 39.8703 23.4252 40.7283 23.2812 41.5788C23.198 42.3522 22.444 42.9192 21.681 42.8673C17.7192 42.8732 13.7559 42.8643 9.79265 42.8702C9.32062 42.8836 8.81297 42.796 8.47008 42.4442C8.0975 42.1117 7.99508 41.5966 8.0114 41.1187C8.01883 37.2088 8.00843 33.2975 8.01734 29.3877C8.01289 27.2887 8.87679 25.2062 10.3775 23.7366C11.8188 22.2909 13.8361 21.4418 15.8786 21.4225C17.5337 21.4032 19.1902 21.421 20.8468 21.4136C19.2362 19.6813 18.2462 17.3627 18.2373 14.9862C18.2343 13.1115 18.2313 11.2352 18.2402 9.35898C18.2669 6.80586 19.3921 4.28836 21.2787 2.56648C22.8819 1.03164 25.0476 0.158828 27.2504 0ZM23.063 4.96523C21.7612 6.27297 21.1155 8.1418 21.2001 9.97351C22.0937 9.97055 22.9887 9.98687 23.8838 9.96758C25.8417 9.90523 27.7744 9.03094 29.0747 7.55844C29.5259 6.91867 30.4255 6.58023 31.1335 7.01219C32.1726 7.61039 33.2102 8.21453 34.2329 8.83945C34.0429 6.13492 31.8876 3.74805 29.2587 3.15727C27.0634 2.61695 24.6216 3.32945 23.063 4.96523ZM25.953 12.6795C24.3974 13.058 22.7884 12.9155 21.2045 12.9437C21.2268 14.1713 21.0977 15.4286 21.4465 16.6235C21.9794 18.5755 23.4786 20.2305 25.3652 20.9579C27.1287 21.663 29.2023 21.5383 30.8663 20.6209C32.4635 19.7645 33.6673 18.2103 34.0993 16.4498C34.4318 15.0961 34.2537 13.6889 34.2982 12.3099C33.0959 11.5945 31.8861 10.8938 30.6837 10.1784C29.3508 11.3941 27.718 12.2877 25.953 12.6795ZM21.4079 24.3838C21.4064 25.5342 21.4064 26.6846 21.4079 27.835C22.6043 26.6861 23.8081 25.5461 24.9912 24.3838C23.7962 24.3838 22.6013 24.3838 21.4079 24.3838ZM30.5071 24.3853C31.6991 25.5387 32.8955 26.6861 34.0948 27.8335C34.0963 26.6846 34.0948 25.5342 34.0948 24.3838C32.8984 24.3838 31.7035 24.3823 30.5071 24.3853Z" fill="white"/>
<path d="M50.1185 0H73.067C74.5914 0.145469 75.8398 1.42648 76.0001 2.93906V18.9525C75.8531 19.993 75.2683 20.9935 74.3198 21.4893C73.4826 21.9836 72.4777 21.8737 71.5485 21.8797C65.8633 21.8871 60.1767 21.8648 54.493 21.8916C53.3426 22.282 52.2738 22.9084 51.1531 23.3893C50.4228 23.7025 49.7371 24.127 48.9726 24.3497C48.0864 24.5649 47.1721 23.7723 47.2225 22.8698C47.2121 16.383 47.224 9.89781 47.2166 3.41109C47.083 1.72336 48.4442 0.160313 50.1185 0ZM50.1853 3.40812C50.1883 9.12594 50.1853 14.8452 50.1868 20.563C51.0433 20.1623 51.9013 19.7659 52.7548 19.3577C53.2001 19.1455 53.6558 18.8902 54.1664 18.9124C60.2049 18.9124 66.2448 18.9065 72.2847 18.9154C72.5118 18.8902 72.7775 18.9673 72.9824 18.8323C73.0417 18.3959 73.0091 17.9535 73.0135 17.5156C73.0135 13.113 73.0135 8.71031 73.0135 4.30766C73.0046 3.86234 73.064 3.40516 72.9319 2.97172C65.4388 2.99102 57.9442 2.96727 50.4496 2.98359C50.1928 2.93313 50.169 3.23594 50.1853 3.40812Z" fill="white"/>
<path d="M53.9389 6.45112C54.2952 6.3012 54.6915 6.32643 55.07 6.3205C59.5692 6.3294 64.0698 6.31753 68.5704 6.32643C69.4165 6.2626 70.2107 7.0137 70.1498 7.8687C70.1409 8.6762 69.3839 9.35011 68.5853 9.29073C63.9288 9.2937 59.2738 9.29221 54.6173 9.29221C53.9775 9.32784 53.3363 8.92261 53.1329 8.30807C52.8598 7.60151 53.2398 6.7376 53.9389 6.45112Z" fill="white"/>
<path d="M53.9318 12.3901C54.2436 12.2521 54.5939 12.2639 54.9293 12.258C58.0436 12.2699 61.1593 12.2506 64.275 12.2669C65.0988 12.2402 65.8291 13.0017 65.7638 13.824C65.743 14.5914 65.0424 15.249 64.275 15.2267C61.0539 15.2342 57.8328 15.2297 54.6132 15.2282C53.9734 15.2624 53.3366 14.8571 53.1332 14.2441C52.8616 13.5405 53.2372 12.6781 53.9318 12.3901Z" fill="white"/>
<path d="M27.2203 39.9995C28.2624 39.5378 29.4974 40.6095 29.1931 41.705C29.0046 42.7604 27.5736 43.2369 26.7913 42.5051C25.9378 41.8445 26.1976 40.3409 27.2203 39.9995Z" fill="white"/>
<path d="M10.6504 49.2515C12.4094 48.3802 14.5469 48.3342 16.3489 49.109C18.2177 49.8958 19.6917 51.5494 20.2587 53.4969C20.6076 54.6265 20.5541 55.8258 20.5378 56.994C20.5126 58.324 20.0584 59.6199 19.3251 60.7228C21.8945 60.8015 24.3601 62.1537 25.8311 64.2586C27.3021 62.1552 29.7677 60.8 32.3371 60.7228C31.6038 59.6244 31.1496 58.3315 31.1244 57.0044C31.111 55.8704 31.0531 54.7096 31.3723 53.6067C31.8844 51.7275 33.2426 50.1065 34.9941 49.2575C36.7531 48.3832 38.8921 48.3312 40.6956 49.1046C42.5051 49.8631 43.9494 51.4336 44.552 53.2994C44.978 54.5329 44.9157 55.86 44.8875 57.144C44.8385 58.4235 44.3843 59.66 43.6807 60.7228C46.2442 60.8029 48.7068 62.1463 50.1778 64.2452C51.6503 62.1478 54.1114 60.8015 56.6749 60.7228C56.2712 60.0919 55.9223 59.4195 55.7234 58.6936C55.385 57.5685 55.4473 56.3795 55.4652 55.2202C55.5141 52.9714 56.7714 50.8086 58.6759 49.6241C60.3176 48.5702 62.4165 48.2822 64.2838 48.8374C66.2729 49.4059 67.9517 50.9319 68.7251 52.8482C69.3277 54.245 69.2698 55.7991 69.2164 57.2865C69.1466 58.5185 68.6909 59.7015 68.017 60.7272C70.0105 60.8059 71.9759 61.6015 73.4172 62.9894C74.9728 64.4456 75.8991 66.5208 76 68.6449V74.713C75.8783 75.3647 75.3602 75.8634 74.716 76H1.39531C0.708047 75.9317 0.143984 75.4107 0 74.7383V68.6494C0.0935156 66.6291 0.930703 64.649 2.35867 63.2121C3.82078 61.6951 5.88258 60.8059 7.98297 60.7272C6.68414 58.9193 6.61734 56.5992 6.83703 54.4691C7.13391 52.2396 8.62125 50.2194 10.6504 49.2515ZM13.0907 51.5642C11.1298 51.8062 9.59352 53.7002 9.72711 55.667C9.70039 56.7536 9.68703 57.9188 10.3164 58.8599C11.0616 60.083 12.5133 60.8341 13.9442 60.7094C15.2891 60.6219 16.5463 59.7772 17.1475 58.5734C17.719 57.5047 17.5795 56.2519 17.5542 55.0866C17.4191 52.9209 15.2297 51.1961 13.0907 51.5642ZM37.1747 51.6132C36.0391 51.8551 35.0372 52.6344 34.5132 53.6705C33.9595 54.6903 34.0872 55.8867 34.0946 57.0029C34.1495 58.8005 35.6102 60.4155 37.387 60.6708C38.9841 60.9544 40.6897 60.1083 41.4497 58.6788C42.0954 57.5447 41.9455 56.1865 41.895 54.9382C41.6738 52.7324 39.3285 51.0803 37.1747 51.6132ZM61.5288 51.6102C60.3131 51.8626 59.2503 52.7324 58.756 53.8694C58.3048 54.8476 58.4309 55.952 58.4324 56.997C58.4844 58.7976 59.948 60.417 61.7262 60.6708C63.3294 60.9558 65.0379 60.1023 65.7934 58.6669C66.4317 57.5344 66.2833 56.1821 66.2328 54.9367C66.0116 52.7383 63.6782 51.0877 61.5288 51.6102ZM6.2225 64.0983C4.37297 64.8494 3.04148 66.7241 2.97914 68.7236C2.95391 70.156 2.97469 71.5884 2.96875 73.0208C10.0923 73.0208 17.2143 73.0208 24.3378 73.0208C24.32 71.4934 24.3764 69.9615 24.3066 68.4356C24.1018 65.9092 21.8411 63.7643 19.3058 63.7019C15.7433 63.6708 12.1793 63.699 8.6168 63.6886C7.80187 63.6722 6.97508 63.7732 6.2225 64.0983ZM30.642 64.073C28.7627 64.8078 27.4016 66.6974 27.3363 68.7191C27.3095 70.153 27.3318 71.5869 27.3244 73.0208C34.4479 73.0223 41.5699 73.0223 48.6934 73.0208C48.6756 71.4875 48.735 69.9511 48.6608 68.4193C48.4485 65.8973 46.1878 63.7628 43.6555 63.7019C40.09 63.6722 36.523 63.699 32.9561 63.6886C32.1694 63.6752 31.3723 63.7687 30.642 64.073ZM55.0852 64.0315C53.154 64.7365 51.7394 66.6573 51.6741 68.7176C51.6459 70.1515 51.6696 71.5869 51.6622 73.0208C58.7857 73.0208 65.9077 73.0223 73.0312 73.0208C73.0283 71.6374 73.0416 70.254 73.0268 68.8705C73.0105 67.1605 72.0902 65.4995 70.6577 64.5688C69.7849 63.9854 68.737 63.6856 67.689 63.6915C64.1755 63.6871 60.6634 63.6915 57.1499 63.6901C56.4493 63.6841 55.7413 63.7761 55.0852 64.0315Z" fill="white"/>
</svg>
