<svg width="76" height="76" viewBox="0 0 76 76" fill="none" xmlns="http://www.w3.org/2000/svg">
<path d="M18.2816 0H57.7541C59.5828 0.139531 61.1874 1.70109 61.2884 3.54617C61.3418 4.93555 61.2943 6.32789 61.3091 7.71875C64.5213 7.71727 67.7335 7.7232 70.9442 7.71578C71.8408 7.68906 72.77 7.77516 73.5716 8.21008C74.9416 8.89438 75.862 10.3209 76 11.8379V59.9866C75.8723 61.468 74.998 62.8707 73.6784 63.5758C72.4924 64.2527 71.0689 64.168 69.7567 64.082C68.685 63.9216 68.1966 62.4521 68.9433 61.6713C69.5905 60.8995 70.6889 61.2364 71.5602 61.1473C72.341 61.1637 73.0357 60.4705 73.0209 59.6897C73.055 58.6952 73.0179 57.6991 73.0312 56.7031C64.1977 56.7061 55.3627 56.6972 46.5292 56.7076C45.9652 57.5745 45.0077 58.1994 43.9509 58.1816C39.9861 58.192 36.0213 58.1905 32.0566 58.1816C30.9982 58.2023 30.0348 57.5774 29.4723 56.7076C20.6373 56.6972 11.8038 56.7061 2.96875 56.7031C2.98508 57.7422 2.93609 58.7812 2.98805 59.8188C3.03109 60.6189 3.81336 61.2171 4.59266 61.1548C22.0162 61.1577 39.4398 61.1562 56.8634 61.1562C57.4275 61.1652 57.999 61.1102 58.5571 61.2097C59.3676 61.3878 59.8752 62.3334 59.5902 63.1112C59.3898 63.7554 58.7219 64.1621 58.0598 64.1235C54.3994 64.128 50.7404 64.1235 47.0799 64.125C47.4659 67.0938 47.8533 70.064 48.2407 73.0327C49.1788 73.098 50.4005 72.7448 51.058 73.6265C51.7542 74.4785 51.1501 75.853 50.0798 76H25.9513C25.408 75.8946 24.8959 75.5428 24.7252 74.998C24.4209 74.2009 24.9687 73.2123 25.8162 73.0743C26.459 72.9867 27.1106 73.0416 27.7578 73.0327C28.1452 70.064 28.5327 67.0938 28.9186 64.125C20.8139 64.125 12.7092 64.125 4.60453 64.125C3.46156 64.1517 2.31117 63.7465 1.46805 62.9672C0.636797 62.2339 0.143984 61.177 0 60.0875V11.7874C0.185547 9.47773 2.37797 7.50648 4.71438 7.74695C5.8143 7.88797 6.33383 9.38422 5.56492 10.1798C5.03797 10.882 3.98406 10.4901 3.41406 11.118C2.73867 11.78 3.02516 12.8131 2.97172 13.6562C6.87711 13.6562 10.784 13.6562 14.6894 13.6562C14.6894 10.4871 14.6909 7.31945 14.6879 4.15031C14.6805 3.40664 14.8334 2.65258 15.2148 2.00688C15.8368 0.890625 17.0213 0.157344 18.2816 0ZM17.8941 3.33984C17.5602 3.73023 17.6804 4.27945 17.6552 4.75C17.6626 21.0781 17.6552 37.4062 17.6581 53.7344C21.9688 53.7403 26.2794 53.724 30.59 53.7418C31.4034 53.718 32.0328 54.4424 32.0922 55.2188C36.0302 55.2188 39.9683 55.2188 43.9078 55.2188C43.9672 54.4469 44.5877 53.7225 45.3996 53.7418C49.7132 53.7225 54.0268 53.7403 58.3404 53.7344C58.3419 37.1569 58.3419 20.5809 58.3404 4.00336C58.4176 3.41852 57.8921 2.89008 57.3073 2.96875C44.4852 2.96727 31.6647 2.97023 18.8441 2.96727C18.4923 2.95242 18.1168 3.05039 17.8941 3.33984ZM61.3091 10.6875C61.3091 11.6776 61.3091 12.6662 61.3091 13.6562C65.216 13.6562 69.1229 13.6562 73.0298 13.6562C73.0179 13.0536 73.0743 12.4465 72.9867 11.8468C72.8516 11.1298 72.1243 10.6311 71.4073 10.6875C68.0423 10.6875 64.6757 10.6875 61.3091 10.6875ZM2.96875 16.625C2.96875 28.9943 2.96875 41.3651 2.96875 53.7344C6.87562 53.7344 10.7825 53.7344 14.6894 53.7344C14.6894 41.3651 14.6894 28.9943 14.6894 16.625C10.7825 16.625 6.87562 16.625 2.96875 16.625ZM61.3091 16.625C61.3106 28.9943 61.3106 41.3651 61.3091 53.7344C65.2175 53.7344 69.1244 53.7344 73.0312 53.7344C73.0298 41.3651 73.0298 28.9943 73.0312 16.625C69.1244 16.625 65.216 16.625 61.3091 16.625ZM31.9126 64.125C31.5252 67.0938 31.1377 70.0625 30.7533 73.0312C35.5834 73.0312 40.4151 73.0312 45.2467 73.0312C44.8608 70.0625 44.4734 67.0938 44.0859 64.125C40.0277 64.125 35.9709 64.125 31.9126 64.125Z" fill="white"/>
<path d="M9.86207 7.8182C10.8848 7.37437 12.1035 8.39117 11.8467 9.47625C11.6908 10.5658 10.2124 11.0809 9.41676 10.3179C8.57512 9.64695 8.84527 8.15812 9.86207 7.8182Z" fill="white"/>
<path d="M21.5874 7.81672C21.9021 7.7039 22.2435 7.72172 22.5716 7.71429C26.3805 7.72914 30.1894 7.70687 33.9983 7.72469C34.7835 7.70687 35.4812 8.40898 35.4663 9.19422C35.4782 14.0986 35.4693 19.0045 35.4708 23.9103C35.545 24.7401 34.8474 25.5446 34.0027 25.5238C30.035 25.5357 26.0673 25.5372 22.101 25.5238C21.2505 25.5461 20.5469 24.7371 20.6285 23.9014C20.627 19.052 20.627 14.2025 20.6285 9.35304C20.5781 8.7014 20.9655 8.04086 21.5874 7.81672ZM23.5973 10.6875C23.5958 14.6463 23.5958 18.6037 23.5973 22.5625C26.566 22.5625 29.5348 22.5625 32.5035 22.5625C32.502 18.6037 32.502 14.6463 32.5035 10.6875C29.5348 10.6875 26.566 10.6875 23.5973 10.6875Z" fill="white"/>
<path d="M39.3938 7.81824C39.658 7.72027 39.9445 7.72324 40.2236 7.71582C44.7791 7.7277 49.3347 7.7084 53.8887 7.72473C54.6784 7.70246 55.3865 8.40902 55.3687 9.19723C55.3924 9.98691 54.6858 10.6979 53.8976 10.6801C49.2872 10.6964 44.6767 10.6831 40.0662 10.6875C39.4576 10.7261 38.8372 10.3966 38.5833 9.83254C38.2078 9.08738 38.6115 8.0973 39.3938 7.81824Z" fill="white"/>
<path d="M39.3982 13.7557C39.7084 13.6444 40.0439 13.6592 40.3675 13.6518C42.5525 13.6666 44.7375 13.6429 46.921 13.6637C47.7092 13.6473 48.4128 14.3613 48.3861 15.1495C48.4009 15.9318 47.7018 16.6339 46.918 16.6176C44.5876 16.6294 42.2556 16.6295 39.9251 16.6191C39.1963 16.6384 38.5224 16.0387 38.4541 15.3143C38.3621 14.6567 38.7792 13.9828 39.3982 13.7557Z" fill="white"/>
<path d="M21.5751 28.6024C21.8898 28.4881 22.2312 28.503 22.5607 28.4955C26.374 28.5104 30.1889 28.4866 34.0023 28.5074C34.8409 28.4852 35.5653 29.2971 35.4584 30.1269C35.405 30.924 34.6316 31.5355 33.8479 31.4687C29.9351 31.4643 26.0223 31.4777 22.1094 31.4613C21.3791 31.4806 20.7082 30.8794 20.6414 30.1551C20.5508 29.5019 20.962 28.834 21.5751 28.6024Z" fill="white"/>
<path d="M21.5918 34.534C21.8516 34.439 22.1321 34.442 22.4052 34.4345C30.5277 34.442 38.6502 34.4345 46.7727 34.439C47.5491 34.3737 48.3135 34.9749 48.3773 35.7616C48.4961 36.6047 47.7569 37.4271 46.9063 37.4003C38.6888 37.4152 30.4698 37.4018 22.2523 37.4063C21.6081 37.4523 20.9565 37.0708 20.7309 36.4563C20.4221 35.7185 20.8407 34.7982 21.5918 34.534Z" fill="white"/>
<path d="M21.5826 40.4745C21.9938 40.3349 22.4376 40.3809 22.8637 40.372C30.8808 40.3839 38.8979 40.3631 46.915 40.3824C47.7581 40.3587 48.4914 41.1721 48.3786 42.0108C48.3192 42.8049 47.5444 43.412 46.7606 43.3438C38.7925 43.3467 30.8229 43.3393 22.8533 43.3467C22.2387 43.3512 21.5203 43.4046 21.0646 42.9059C20.3046 42.2067 20.6059 40.804 21.5826 40.4745Z" fill="white"/>
<path d="M21.5903 46.4104C22.0015 46.2739 22.4424 46.3169 22.8684 46.3095C30.881 46.3214 38.8952 46.3006 46.9078 46.3199C47.7569 46.2932 48.4946 47.111 48.3774 47.9527C48.315 48.7439 47.5461 49.3495 46.7653 49.2812C38.5983 49.2812 30.4313 49.2812 22.2657 49.2812C21.577 49.3376 20.8823 48.8968 20.6938 48.2258C20.4578 47.5044 20.8793 46.6628 21.5903 46.4104Z" fill="white"/>
<path d="M63.5905 61.2572C64.6088 60.8104 65.8289 61.8168 65.5825 62.9004C65.4371 63.9988 63.9497 64.5213 63.1511 63.7554C62.3125 63.0859 62.5767 61.6001 63.5905 61.2572Z" fill="white"/>
</svg>
