<svg width="58" height="57" viewBox="0 0 58 57" fill="none" xmlns="http://www.w3.org/2000/svg">
<path d="M48.9502 28.1749C48.9185 33.0891 48.7028 38.0543 49.0988 42.9632C51.1234 38.1952 51.6599 33.1437 51.7224 28.1882C51.63 23.2212 51.1225 18.1776 49.0988 13.3964C48.7354 18.3061 48.9185 23.2617 48.9502 28.1749ZM56.1875 28.189C56.0688 20.7509 55.3982 13.2643 52.9449 6.00667C52.9857 13.5364 53.4443 21.0599 53.4108 28.5914C53.379 35.8473 52.9631 43.1014 52.9449 50.3538C55.4072 43.1049 56.0688 35.6219 56.1875 28.189ZM45.501 23.8973L45.3759 23.8709C44.9065 12.3074 42.5738 3.52142 39.769 3.52142C39.2288 3.52142 38.7078 3.85332 38.212 4.46076C37.1354 5.6246 23.3133 20.3301 11.4749 21.7519C10.0893 21.9182 8.76525 22.0565 7.53638 22.1559C6.10631 22.273 4.80494 22.3382 3.683 22.3382C3.683 22.3382 1.8125 25.1659 1.8125 28.1908C1.8125 31.2201 3.68662 34.0434 3.68662 34.0434C4.80856 34.0434 6.11175 34.1086 7.54181 34.2239C8.06291 34.267 8.60847 34.3198 9.16128 34.3753V46.1738H16.4856L23.6794 39.6451C31.7124 44.7917 38.2583 51.9631 38.2583 51.9631V51.9393C38.7395 52.5098 39.2461 52.8214 39.769 52.8214C42.5738 52.8214 44.9065 44.0355 45.3768 32.472L45.5019 32.4464C46.2659 32.4464 46.8867 30.5308 46.8867 28.1723C46.8857 25.8112 46.265 23.8973 45.501 23.8973ZM39.769 5.36841C41.064 6.47502 43.0732 12.9087 43.5489 23.4809L36.0796 21.8883C36.6741 12.2695 38.5401 6.41692 39.769 5.36841ZM12.8234 30.4304C11.9969 30.4304 11.3245 29.6531 11.3245 28.6979C11.3245 27.74 11.9969 26.9636 12.8234 26.9636C13.6517 26.9636 14.3206 27.74 14.3206 28.6979C14.3215 29.6539 13.6517 30.4304 12.8234 30.4304ZM16.4856 39.5245V35.9221C17.3819 36.2628 18.2791 36.6545 19.169 37.0894L16.4856 39.5245ZM16.4856 34.0469V24.8622H12.2588C12.4129 24.319 12.5869 23.8049 12.7673 23.34C21.7119 21.7457 31.214 13.76 36.1784 9.0395C34.8943 13.5584 34.0732 20.448 34.0732 28.1714C34.0732 35.9168 34.8988 42.8241 36.1911 47.343C31.9236 43.2854 24.2621 36.784 16.4856 34.0469ZM39.769 50.9744C38.541 49.9259 36.6741 44.0724 36.0796 34.4537L43.5489 32.8611C43.0732 43.4333 41.064 49.8678 39.769 50.9744Z" fill="url(#paint0_linear_406_93)"/>
<defs>
<linearGradient id="paint0_linear_406_93" x1="29" y1="3.52142" x2="29" y2="52.8214" gradientUnits="userSpaceOnUse">
<stop stop-color="white"/>
<stop offset="1" stop-color="#FF0000"/>
</linearGradient>
</defs>
</svg>
