<svg width="17" height="15" viewBox="0 0 17 15" fill="none" xmlns="http://www.w3.org/2000/svg">
<path d="M16.8125 4.427V11.7656C16.8125 13.0344 15.7844 14.0625 14.5156 14.0625H2.48438C1.87521 14.0625 1.29099 13.8205 0.860239 13.3898C0.429491 12.959 0.1875 12.3748 0.1875 11.7656V4.427L8.23663 8.8545C8.40069 8.94462 8.59975 8.94462 8.76337 8.8545L16.8125 4.42656V4.427ZM14.5156 0.9375C15.1152 0.937556 15.691 1.17207 16.12 1.59094C16.549 2.00981 16.7972 2.57984 16.8116 3.17925L8.5 7.75112L0.188375 3.17881L0.18925 3.13944C0.213751 2.54718 0.466278 1.98732 0.894023 1.57694C1.32177 1.16656 1.89161 0.937445 2.48438 0.9375H14.5156Z" fill="url(#paint0_linear_405_40)"/>
<defs>
<linearGradient id="paint0_linear_405_40" x1="8.5" y1="0.9375" x2="8.5" y2="14.0625" gradientUnits="userSpaceOnUse">
<stop stop-color="white"/>
<stop offset="1" stop-color="#E61F0A"/>
</linearGradient>
</defs>
</svg>
