<svg width="18" height="18" viewBox="0 0 18 18" fill="none" xmlns="http://www.w3.org/2000/svg">
<path d="M11.3816 12.1275L12.8516 10.6575C13.0495 10.462 13.3 10.3281 13.5726 10.2722C13.8452 10.2163 14.1282 10.2407 14.3872 10.3425L16.1787 11.0578C16.4405 11.1641 16.6649 11.3454 16.8237 11.579C16.9825 11.8125 17.0687 12.0879 17.0712 12.3703V15.6516C17.0697 15.8437 17.0293 16.0336 16.9525 16.2097C16.8757 16.3858 16.764 16.5445 16.6242 16.6764C16.4844 16.8082 16.3194 16.9104 16.1391 16.9767C15.9588 17.0431 15.7669 17.0723 15.575 17.0625C3.02093 16.2816 0.487802 5.65034 0.00873959 1.58159C-0.0134988 1.38178 0.00681982 1.17954 0.0683587 0.988149C0.129898 0.796761 0.231262 0.620572 0.365784 0.471172C0.500305 0.321773 0.664935 0.202549 0.848843 0.121344C1.03275 0.0401387 1.23177 -0.00120695 1.4328 2.68203e-05H4.60249C4.88534 0.000864055 5.16147 0.0863023 5.39537 0.245352C5.62926 0.404402 5.81023 0.62979 5.91499 0.892527L6.6303 2.68409C6.73547 2.94204 6.7623 3.22526 6.70744 3.49837C6.65259 3.77148 6.51848 4.02238 6.32186 4.21971L4.85186 5.68971C4.85186 5.68971 5.69843 11.4188 11.3816 12.1275Z" fill="url(#paint0_linear_405_38)"/>
<defs>
<linearGradient id="paint0_linear_405_38" x1="8.53562" y1="0" x2="8.53562" y2="17.0644" gradientUnits="userSpaceOnUse">
<stop stop-color="white"/>
<stop offset="1" stop-color="#E61F0A"/>
</linearGradient>
</defs>
</svg>
