<?xml version="1.0" standalone="no"?>
<!DOCTYPE svg PUBLIC "-//W3C//DTD SVG 20010904//EN"
 "http://www.w3.org/TR/2001/REC-SVG-20010904/DTD/svg10.dtd">
<svg version="1.0" xmlns="http://www.w3.org/2000/svg"
 width="1728.000000pt" height="1728.000000pt" viewBox="0 0 1728.000000 1728.000000"
 preserveAspectRatio="xMidYMid meet">
<metadata>
Created by potrace 1.14, written by Peter Selinger 2001-2017
</metadata>
<g transform="translate(0.000000,1728.000000) scale(0.100000,-0.100000)"
fill="#000000" stroke="none">
<path d="M3859 12836 c-2 -2 -51 -6 -109 -10 -58 -4 -118 -8 -135 -11 -16 -2
-52 -7 -80 -10 -27 -3 -63 -7 -80 -9 -98 -12 -379 -64 -433 -80 -9 -3 -28 -7
-42 -10 -50 -10 -70 -15 -78 -20 -5 -3 -23 -8 -40 -11 -52 -9 -291 -90 -412
-139 -135 -56 -292 -132 -408 -198 -46 -27 -85 -48 -87 -48 -4 0 -227 -146
-240 -158 -6 -5 -34 -24 -62 -44 -154 -106 -424 -348 -583 -524 -117 -130
-129 -144 -223 -264 -114 -145 -305 -446 -380 -598 -20 -41 -40 -79 -45 -85
-5 -7 -22 -43 -37 -82 -16 -38 -35 -79 -42 -90 -7 -11 -13 -25 -13 -32 0 -7
-8 -32 -19 -56 -10 -23 -24 -55 -31 -72 -11 -28 -68 -193 -89 -260 -12 -37
-72 -263 -77 -290 -2 -11 -9 -45 -15 -75 -7 -30 -13 -64 -15 -75 -4 -28 -13
-76 -19 -103 -3 -12 -8 -42 -11 -66 -2 -24 -7 -54 -9 -66 -2 -12 -7 -48 -10
-79 -3 -31 -8 -67 -10 -81 -25 -137 -29 -1100 -5 -1100 3 0 6 -19 7 -43 1 -23
9 -87 18 -142 8 -55 17 -113 19 -130 3 -16 7 -41 10 -55 5 -20 26 -123 41
-200 2 -8 4 -15 5 -15 1 0 3 -8 5 -17 2 -9 17 -68 35 -130 18 -62 33 -117 34
-123 2 -5 6 -17 9 -25 5 -15 40 -120 42 -130 1 -3 7 -18 13 -33 7 -16 12 -32
12 -36 0 -4 7 -22 16 -40 9 -17 17 -37 18 -44 3 -12 12 -33 59 -142 33 -74
176 -356 199 -389 4 -6 57 -85 117 -176 60 -91 121 -178 135 -193 14 -15 22
-27 18 -27 -4 0 -2 -4 3 -8 6 -4 40 -43 75 -87 88 -110 115 -139 275 -300 191
-191 291 -277 490 -422 76 -55 301 -199 350 -223 17 -8 32 -18 35 -21 12 -14
325 -161 430 -202 63 -24 124 -48 135 -52 11 -4 31 -10 45 -12 13 -2 29 -8 35
-12 9 -8 175 -56 220 -65 11 -2 47 -11 80 -19 92 -24 263 -56 405 -76 254 -37
352 -43 670 -44 297 -2 424 5 618 33 42 6 93 13 112 16 32 4 304 59 340 69 8
2 44 11 80 19 36 9 88 23 115 32 28 8 57 17 65 19 23 6 181 61 215 75 17 7 44
18 60 25 76 31 188 84 280 131 144 74 170 88 173 97 2 4 8 7 13 7 6 0 37 18
69 40 32 22 64 40 69 40 6 0 11 4 11 8 0 4 15 16 33 27 26 15 70 46 132 92 46
35 142 109 151 118 6 5 35 30 65 55 62 51 334 322 394 391 115 134 173 208
263 339 37 52 70 97 74 98 4 2 8 7 8 12 0 4 20 41 45 81 25 40 45 76 45 79 0
9 -1013 6 -1027 -3 -7 -5 -13 -12 -13 -17 0 -11 -111 -197 -158 -265 -64 -92
-173 -233 -212 -276 -162 -176 -360 -351 -451 -399 -13 -7 -26 -16 -29 -19
-19 -26 -332 -185 -405 -207 -5 -2 -40 -14 -78 -28 -64 -24 -192 -62 -247 -72
-14 -3 -33 -7 -42 -10 -10 -3 -29 -7 -43 -10 -14 -2 -37 -6 -52 -9 -14 -2 -47
-7 -72 -11 -25 -4 -55 -8 -66 -10 -89 -17 -467 -24 -605 -10 -156 14 -297 37
-437 71 -13 3 -33 7 -45 10 -137 30 -430 151 -588 244 -30 18 -63 35 -72 38
-10 3 -18 9 -18 14 0 5 -5 9 -10 9 -9 0 -103 58 -140 87 -8 6 -53 40 -100 76
-47 35 -105 81 -130 103 -83 73 -296 289 -359 364 -34 41 -70 84 -81 95 -11
12 -20 24 -20 28 0 4 -9 18 -21 30 -44 47 -270 400 -296 463 -5 11 -24 48 -43
84 -19 36 -35 67 -35 70 -1 3 -17 37 -34 75 -18 39 -41 88 -51 110 -29 65
-116 304 -140 385 -12 41 -27 88 -33 104 -6 17 -12 37 -13 45 -1 9 -12 50 -23
91 -12 41 -23 86 -26 100 -5 27 -5 27 -30 140 -9 41 -18 84 -20 95 -6 44 -16
102 -20 125 -3 14 -7 49 -11 78 -3 29 -7 63 -10 75 -2 12 -7 49 -10 82 -3 33
-7 76 -10 95 -24 213 -24 862 0 987 3 12 7 50 10 85 4 35 8 74 11 88 2 14 7
45 9 70 3 25 8 56 11 70 9 42 27 144 30 165 5 36 56 239 76 305 11 36 23 76
25 89 3 13 9 32 14 41 5 10 12 32 15 51 3 18 10 38 14 44 5 5 18 35 29 65 11
30 32 82 47 115 41 92 48 109 47 118 -1 4 2 7 8 7 5 0 10 5 10 12 0 36 308
546 349 578 4 3 22 25 41 50 61 78 82 102 195 215 179 178 313 284 495 391 86
51 237 126 281 139 13 4 29 11 34 15 27 21 365 121 459 136 21 3 48 8 60 10
11 2 40 7 62 10 23 2 52 7 64 9 132 25 704 21 770 -5 3 -1 8 -2 12 -1 4 0 31
-4 60 -9 29 -6 64 -13 78 -15 118 -22 259 -63 398 -114 83 -31 332 -147 342
-160 3 -3 25 -17 50 -30 25 -14 47 -27 50 -31 3 -3 23 -17 45 -30 36 -21 89
-60 165 -119 186 -146 366 -330 535 -550 l70 -91 637 0 638 0 -18 29 c-40 66
-155 224 -230 316 -137 167 -387 418 -536 537 -111 89 -177 138 -185 138 -5 0
-11 4 -13 8 -1 5 -37 31 -78 58 -41 27 -76 52 -78 57 -2 4 -8 7 -13 7 -5 0
-33 16 -63 35 -30 19 -59 35 -65 35 -5 0 -11 3 -13 8 -1 4 -23 18 -48 31 -65
35 -239 121 -244 121 -2 0 -30 12 -62 27 -33 15 -63 28 -69 30 -5 1 -59 21
-120 43 -60 23 -119 44 -130 46 -11 2 -31 8 -45 13 -23 8 -102 31 -125 37 -5
1 -57 13 -115 27 -93 22 -152 35 -240 52 -36 7 -115 19 -185 29 -22 3 -49 8
-60 10 -11 2 -60 7 -108 11 -48 3 -98 9 -110 12 -24 6 -612 14 -618 9z"/>
<path d="M3888 10414 c-2 -1 -19 -6 -37 -9 -85 -15 -181 -82 -237 -165 -27
-41 -60 -105 -53 -105 1 0 -3 -10 -10 -22 -9 -19 -24 -109 -23 -148 1 -30 11
-125 17 -160 8 -44 63 -155 76 -155 5 0 9 -5 9 -10 0 -31 130 -121 201 -140
24 -7 51 -14 59 -15 8 -2 15 -4 15 -5 0 -7 152 -4 162 2 6 5 17 8 25 7 16 -3
36 4 106 37 124 57 218 194 237 345 4 30 9 57 11 61 2 4 0 9 -6 13 -7 4 -7 12
0 24 5 10 7 20 5 23 -3 2 -7 22 -11 44 -11 67 -14 78 -56 162 -40 79 -108 144
-196 185 -62 29 -76 32 -179 33 -62 1 -114 0 -115 -2z m191 -103 c85 -44 178
-171 197 -271 22 -119 11 -226 -33 -315 -50 -102 -123 -154 -220 -156 -105 -2
-150 17 -227 96 -72 75 -103 144 -112 254 -7 85 -7 78 0 136 15 122 102 235
211 272 47 17 135 9 184 -16z"/>
<path d="M8790 10406 c-6 -6 -10 -16 -10 -23 0 -7 -4 -21 -10 -31 -5 -9 -31
-71 -56 -137 -53 -138 -165 -422 -188 -477 -9 -21 -16 -39 -16 -40 0 -2 -13
-28 -28 -58 -28 -54 -30 -55 -72 -55 -46 0 -61 -17 -53 -59 4 -20 9 -21 157
-18 l152 3 1 34 c0 25 -4 34 -16 34 -9 0 -31 1 -48 1 -36 1 -38 6 -21 47 6 15
12 33 13 38 2 6 14 35 27 65 14 30 28 63 31 72 5 15 22 17 143 15 l136 -2 25
-70 c13 -38 27 -79 30 -90 4 -11 13 -30 21 -42 13 -20 12 -24 -2 -29 -9 -3
-22 -4 -29 -1 -7 3 -27 -1 -45 -9 -24 -10 -32 -19 -32 -39 l0 -25 158 -1 c187
0 249 -3 282 -13 89 -26 199 11 237 79 45 81 93 230 107 335 13 97 16 129 22
250 3 69 7 130 8 135 2 6 42 10 92 10 l89 0 0 -360 0 -360 -50 -2 c-54 -3 -76
-20 -68 -53 5 -19 15 -20 199 -20 l194 0 0 25 c0 31 -29 47 -86 47 l-45 0 0
96 c0 54 0 106 0 117 0 40 0 310 0 325 0 8 1 58 1 111 l0 96 48 -1 c62 -2 80
7 77 38 -2 14 -5 28 -8 33 -4 6 -552 8 -644 2 -13 -1 -23 -9 -25 -23 -8 -45
-1 -51 60 -50 31 1 62 0 67 -2 11 -5 10 -179 -2 -204 -7 -18 -12 -53 -17 -135
-3 -64 -35 -194 -63 -260 -18 -42 -64 -95 -82 -95 -5 0 -26 10 -47 22 l-36 21
-39 -43 c-30 -33 -39 -52 -39 -78 0 -36 -14 -36 -16 -1 -3 40 -4 42 -16 32
-14 -10 -19 -10 -65 1 -21 5 -34 15 -38 29 -4 12 -15 45 -25 72 -10 28 -40
109 -66 180 -26 72 -51 141 -57 155 -6 14 -11 30 -13 35 -2 12 -34 99 -76 210
-17 44 -31 85 -32 92 -1 7 -5 16 -9 19 -4 4 -7 15 -7 24 0 11 -9 16 -35 16
-19 0 -40 -5 -45 -10z m104 -494 c-4 -6 -204 -7 -204 -2 0 7 97 237 106 252 4
6 28 -48 54 -118 26 -71 46 -131 44 -132z"/>
<path d="M12303 10400 c-135 -48 -223 -131 -282 -269 -48 -113 -26 -337 44
-451 138 -223 516 -262 702 -71 42 43 102 139 110 176 18 86 23 244 9 300 -35
144 -138 264 -267 311 -65 24 -253 26 -316 4z m177 -73 c96 -12 159 -69 227
-205 34 -68 37 -80 38 -170 1 -102 -8 -146 -45 -225 -21 -45 -108 -142 -118
-132 -3 3 -12 -1 -20 -7 -8 -7 -44 -13 -81 -14 -145 -5 -269 102 -316 273 -36
132 -9 300 64 392 30 38 100 78 150 88 14 2 27 6 29 8 2 1 11 1 20 -1 9 -2 33
-5 52 -7z"/>
<path d="M4550 10399 c0 -3 -15 -4 -34 -3 -29 3 -35 -1 -38 -21 -8 -37 6 -48
61 -48 32 0 55 -5 63 -14 9 -11 12 -107 13 -371 0 -350 0 -357 -20 -357 -11
-1 -25 -4 -30 -7 -6 -4 -17 -3 -24 1 -22 14 -46 1 -58 -29 -6 -16 -9 -31 -6
-34 3 -2 90 -5 194 -6 147 0 189 2 190 12 0 7 2 23 3 36 2 14 -3 22 -13 23 -9
0 -34 1 -56 2 l-40 2 0 360 0 360 180 0 180 0 0 -360 0 -360 -55 -5 c-57 -5
-57 -5 -51 -60 1 -7 66 -9 189 -8 181 3 187 4 190 24 4 30 -19 44 -77 45 -28
1 -51 4 -52 8 -3 34 -3 731 1 732 3 1 29 3 58 4 72 4 80 8 75 42 -5 31 -10 33
-68 33 -19 0 -41 0 -47 0 -7 0 -152 1 -323 3 -170 1 -318 -1 -327 -5 -10 -5
-18 -5 -18 -1 0 4 -13 8 -30 8 -16 0 -30 -3 -30 -6z"/>
<path d="M5464 10398 c-2 -3 -12 -4 -22 -2 -15 5 -17 -3 -15 -68 1 -40 2 -95
3 -122 0 -36 3 -47 13 -43 8 3 20 1 27 -3 32 -20 50 8 67 105 2 11 5 25 7 30
2 7 41 11 97 10 l93 0 0 -360 1 -360 -62 -3 c-63 -3 -74 -12 -65 -54 3 -16 21
-18 197 -18 206 0 205 0 205 51 0 17 -8 19 -62 20 -35 1 -65 1 -68 1 -4 0 -5
672 -1 713 1 12 185 14 197 3 7 -8 11 -37 13 -95 1 -23 7 -34 24 -39 27 -10
60 -5 68 8 9 15 6 215 -4 224 -9 9 -707 12 -713 2z"/>
<path d="M6240 10400 c-10 -7 -16 -52 -8 -65 3 -6 31 -10 62 -9 33 0 57 -4 58
-10 0 -6 2 -174 2 -374 l2 -362 -41 1 c-72 0 -94 -12 -95 -53 0 -17 16 -18
194 -18 l194 0 4 30 c3 17 2 32 0 35 -3 3 -29 5 -59 5 -53 0 -53 0 -53 32 0
25 18 53 82 132 109 133 120 146 141 168 9 10 17 21 17 24 0 4 15 23 33 43 45
51 101 122 105 132 14 36 18 -25 17 -258 l0 -268 -57 -3 -58 -3 0 -34 0 -35
195 0 195 0 0 25 c0 30 -27 46 -81 47 -21 0 -42 4 -45 9 -9 15 -11 79 -2 79 5
0 6 4 3 10 -10 16 -12 81 -3 86 5 3 5 10 2 16 -9 14 -9 103 0 117 4 6 4 11 -1
11 -9 0 -10 231 -1 246 4 5 3 16 -1 23 -5 7 -5 29 -2 49 4 20 6 47 5 59 -2 33
16 43 69 40 26 -1 47 0 48 3 0 3 3 17 5 31 5 31 -31 53 -59 37 -9 -5 -17 -5
-17 -1 0 4 -59 8 -130 8 -72 0 -130 -3 -130 -6 0 -3 -10 -5 -22 -5 -17 1 -23
-6 -29 -31 -6 -32 -5 -33 25 -34 69 -2 85 -4 91 -11 11 -11 -31 -89 -68 -128
-18 -19 -61 -70 -95 -113 -35 -44 -69 -86 -77 -94 -9 -8 -28 -31 -43 -51 -15
-20 -37 -46 -49 -58 -13 -13 -23 -28 -23 -34 0 -6 -4 -9 -9 -6 -5 3 -11 -4
-14 -16 -12 -45 -18 -7 -18 108 0 66 1 124 1 129 1 6 1 69 1 141 l0 132 37 0
c81 1 79 0 74 32 -2 17 -9 33 -15 37 -15 9 -219 10 -239 0 -10 -4 -18 -4 -18
0 0 9 -87 11 -100 3z"/>
<path d="M7238 10399 c-6 -4 -11 -21 -13 -38 -2 -23 2 -31 14 -32 9 -1 34 -2
56 -3 l40 -1 0 -370 0 -370 -55 -5 c-54 -5 -55 -5 -56 -37 l0 -33 156 0 c86 0
159 2 162 5 3 3 2 20 -1 38 -7 32 -8 32 -59 29 l-51 -2 -3 315 c-2 173 -1 315
2 315 3 0 30 -60 59 -132 29 -73 61 -151 71 -173 10 -22 48 -116 85 -210 72
-182 87 -208 119 -203 20 3 26 16 83 173 10 28 20 52 23 55 3 3 6 10 7 15 2
15 112 285 126 309 6 12 12 26 13 32 3 18 36 84 44 89 4 3 7 -127 6 -288 l-1
-292 -30 -2 c-16 0 -44 -2 -61 -2 -28 -1 -31 -4 -32 -36 l-1 -35 177 -1 c97 0
187 -2 199 -3 18 -2 22 3 25 36 2 21 -1 39 -7 39 -5 1 -35 1 -66 1 l-57 -1 1
369 c0 204 3 371 6 371 6 1 72 6 102 8 12 1 16 10 15 30 -1 16 -4 33 -8 37
-10 9 -149 11 -154 2 -3 -4 -15 -4 -27 0 -19 7 -49 7 -93 3 -7 0 -14 -9 -17
-18 -3 -10 -56 -142 -117 -293 -62 -151 -118 -290 -125 -309 -7 -18 -15 -30
-18 -25 -3 5 -28 65 -55 134 -54 135 -116 287 -137 335 -7 17 -23 57 -35 90
-34 90 -31 88 -175 89 -70 1 -131 -2 -137 -5z"/>
<path d="M10250 10395 c-5 -6 -11 -23 -14 -38 -5 -29 -6 -29 77 -30 l37 0 0
-374 0 -375 -44 3 c-53 3 -75 -12 -68 -47 l5 -25 241 4 c238 3 259 5 284 20 6
5 12 6 12 2 0 -16 83 40 111 75 38 47 40 54 42 176 2 69 -2 94 -13 106 -8 9
-31 35 -50 58 -58 70 -113 88 -300 95 -36 2 -68 3 -71 4 -3 0 -5 63 -5 139 l1
137 51 1 c72 1 82 6 76 43 -2 17 -9 32 -16 32 -54 6 -246 2 -246 -4 0 -5 -5
-5 -12 -1 -18 12 -88 10 -98 -1z m434 -470 c37 -18 85 -67 87 -88 10 -123 -2
-172 -47 -202 -43 -28 -128 -53 -179 -53 l-51 0 0 183 0 183 77 -3 c46 -2 91
-10 113 -20z"/>
<path d="M11064 10399 c-2 -4 -15 -4 -29 -1 -17 3 -25 0 -26 -9 0 -8 -2 -24
-5 -36 -3 -20 0 -23 34 -24 79 -2 85 -4 89 -24 3 -17 7 -622 4 -699 -1 -21 -5
-27 -16 -22 -8 3 -15 1 -15 -5 0 -6 -7 -6 -17 -1 -26 12 -78 0 -77 -18 1 -8 2
-23 3 -32 1 -17 17 -18 191 -18 165 0 191 2 197 16 9 25 -27 52 -77 56 l-45 4
-1 164 c0 91 1 170 3 176 4 12 366 14 379 2 5 -6 8 -172 5 -320 -1 -27 -3 -28
-59 -28 -57 0 -58 0 -56 -27 1 -16 2 -31 3 -35 0 -5 89 -8 196 -8 209 0 216 2
178 49 -14 16 -31 22 -68 24 l-50 2 -2 371 -1 371 26 1 c103 1 102 0 102 30 0
15 -4 32 -8 37 -8 11 -357 13 -368 2 -3 -3 -8 -20 -9 -37 -3 -33 -3 -33 73
-32 41 1 42 0 43 -31 1 -37 1 -162 0 -227 l-1 -45 -187 1 c-104 1 -190 2 -193
3 -4 1 -5 274 -1 291 0 3 24 6 53 8 64 3 66 5 60 41 -3 23 -9 31 -26 31 -11 0
-83 1 -159 2 -77 2 -141 0 -143 -3z"/>
<path d="M12980 10400 c-14 -4 -22 -8 -18 -9 4 -1 3 -12 -2 -26 -5 -13 -6 -26
-2 -29 4 -2 37 -6 72 -7 l65 -3 0 -371 -1 -370 -61 -3 c-56 -3 -62 -5 -67 -28
-4 -14 -4 -29 -1 -34 3 -5 152 -9 340 -10 264 0 335 2 336 12 5 81 2 211 -6
218 -16 12 -65 18 -71 8 -3 -4 -7 -21 -10 -36 -2 -15 -10 -51 -16 -80 l-11
-53 -146 3 -146 3 0 175 0 175 77 0 c49 1 79 -4 82 -11 2 -6 7 -36 11 -67 7
-52 26 -80 40 -57 3 5 12 7 20 3 14 -5 22 23 15 52 -1 6 -2 15 -2 20 2 17 4
178 3 211 -1 29 -3 31 -38 30 l-38 -1 0 -50 0 -50 -85 -3 -85 -3 1 143 c1 79
2 146 3 149 2 8 268 5 276 -3 4 -4 10 -33 12 -65 4 -51 22 -110 23 -76 0 7 7
10 15 7 8 -4 26 -4 38 0 23 5 24 8 23 121 l0 115 -35 1 c-172 5 -551 3 -569
-3 -15 -5 -21 -4 -17 2 3 6 5 10 3 9 -2 -1 -14 -5 -28 -9z"/>
<path d="M3443 9086 c-3 -5 -7 -30 -7 -57 -3 -60 1 -62 176 -76 51 -4 82 -11
90 -21 10 -12 13 -192 14 -829 0 -448 -3 -816 -6 -818 -3 -2 -46 -6 -95 -10
-144 -10 -166 -12 -172 -19 -11 -11 -10 -125 1 -129 6 -2 53 -3 103 -3 51 1
93 -3 93 -7 0 -5 5 -5 11 -1 6 3 43 6 83 5 39 -1 87 -2 106 -2 19 -1 40 0 45
1 37 6 245 3 245 -3 0 -5 5 -5 12 -1 6 4 42 7 80 6 l68 -1 1 32 c0 18 1 47 2
65 2 42 -4 46 -73 49 -30 1 -77 5 -105 8 -27 4 -65 8 -84 10 -19 3 -37 9 -40
14 -7 12 -6 689 1 696 3 3 25 1 49 -4 100 -22 181 -32 264 -33 40 0 112 8 150
16 40 9 196 68 208 80 7 6 22 16 35 21 34 15 135 105 168 150 85 116 103 174
100 330 -2 109 -5 127 -34 202 -36 88 -75 144 -137 193 -45 36 -171 100 -195
100 -9 0 -21 5 -28 12 -7 7 -12 9 -12 6 0 -3 -28 1 -62 9 -52 13 -149 16 -556
17 -287 1 -496 -2 -499 -8z m870 -165 c15 -6 27 -8 27 -6 0 6 73 -21 130 -48
49 -24 129 -99 146 -137 6 -14 17 -37 24 -52 13 -28 19 -202 8 -243 -16 -63
-23 -83 -42 -115 -36 -63 -162 -170 -180 -153 -3 4 -6 1 -6 -5 0 -7 -3 -11 -7
-10 -9 2 -100 -16 -173 -35 -43 -11 -198 -12 -230 -2 -10 3 -16 19 -18 47 -4
71 -7 732 -4 750 3 11 16 18 36 20 62 7 262 -1 289 -11z"/>
<path d="M5140 9090 c-4 -3 -7 -29 -6 -59 1 -58 -3 -54 66 -66 36 -7 108 -15
160 -19 l45 -4 0 -829 0 -828 -30 -2 c-16 -1 -56 -5 -89 -8 -32 -4 -79 -8
-105 -9 l-46 -2 -3 -53 c-5 -88 -6 -88 233 -87 113 1 205 -3 205 -7 0 -5 5 -5
11 -1 11 6 33 7 154 5 28 -1 110 0 183 1 72 2 132 -1 132 -5 0 -5 5 -5 12 -1
9 6 144 8 175 3 4 -1 11 -1 16 0 4 1 50 2 102 1 202 -1 221 0 240 14 17 12 19
32 19 246 1 127 -3 234 -8 237 -12 8 -143 11 -154 4 -5 -3 -17 -53 -26 -111
-21 -125 -19 -113 -36 -176 l-13 -51 -333 0 c-183 0 -338 4 -346 8 -10 7 -13
84 -14 394 0 382 0 385 20 386 26 1 298 1 347 0 33 -1 36 -3 37 -33 1 -18 3
-42 5 -53 2 -11 7 -45 12 -75 5 -30 9 -59 10 -65 1 -5 3 -20 3 -32 2 -21 7
-23 50 -23 90 0 86 -16 87 341 1 173 0 319 -3 326 -6 18 -132 16 -132 -3 0
-16 0 -16 -12 -64 -5 -19 -11 -60 -14 -90 -3 -30 -9 -59 -13 -63 -6 -6 -285
-12 -376 -8 -21 1 -21 5 -20 354 l0 352 327 0 c180 -1 330 -3 333 -6 7 -8 14
-40 21 -104 5 -41 19 -118 39 -205 2 -8 4 -18 4 -22 1 -5 35 -8 76 -8 41 0 75
3 76 8 4 27 3 485 -1 491 -6 8 -1407 9 -1420 1z"/>
<path d="M6820 9092 c-5 -2 -10 -30 -10 -62 0 -50 3 -59 18 -58 9 0 33 -3 52
-6 19 -4 49 -9 65 -10 17 -2 56 -7 87 -11 l56 -7 -1 -827 -2 -826 -25 -2 c-52
-4 -226 -19 -242 -22 -5 -1 -8 -25 -8 -54 0 -88 -14 -85 357 -83 178 0 323 -3
323 -7 0 -5 5 -5 11 -1 11 6 33 7 154 5 28 -1 110 0 183 1 72 2 132 -1 132 -5
0 -5 5 -5 11 -1 11 6 33 7 154 5 28 -1 110 0 183 1 72 2 132 -1 132 -5 0 -5 5
-5 11 -1 11 6 33 7 154 5 28 -1 110 0 183 1 72 2 132 0 132 -4 0 -4 7 -5 15
-1 23 8 225 9 225 1 0 -4 6 -5 13 -2 18 7 117 10 117 4 0 -3 27 -3 60 0 33 3
60 3 60 0 0 -3 20 -4 45 -2 49 4 47 1 47 87 0 62 1 61 -49 62 -52 2 -145 11
-178 17 -11 3 -22 5 -25 5 -6 1 -4 1650 2 1656 2 2 35 5 75 6 93 3 173 19 174
36 1 7 1 29 1 48 0 19 0 41 -1 48 -1 10 -80 13 -383 12 -211 0 -385 -3 -388
-7 -10 -12 -5 -113 5 -114 6 0 35 -5 65 -12 30 -6 80 -14 110 -18 30 -3 57 -8
59 -10 3 -2 4 -369 4 -815 -1 -568 -4 -814 -12 -823 -9 -10 -79 -13 -338 -12
l-327 1 0 725 c-1 399 0 773 2 831 l3 105 37 3 c85 5 159 15 190 26 13 5 18
114 5 116 -5 1 -173 2 -375 3 -244 1 -368 -2 -369 -9 -1 -5 -2 -32 -2 -59 l-2
-50 50 -11 c28 -6 75 -12 105 -14 31 -1 61 -9 70 -17 13 -13 15 -119 16 -829
l0 -815 -25 -1 c-14 -1 -59 -2 -98 -3 -40 0 -73 -5 -73 -9 0 -4 -7 -4 -17 1
-9 6 -29 6 -45 2 -15 -5 -28 -6 -28 -2 0 4 -87 7 -193 7 l-192 0 0 827 c1 455
3 829 5 831 3 2 40 7 83 10 43 4 96 11 118 17 l40 11 -3 57 -3 57 -387 0
c-214 0 -392 -1 -398 -3z"/>
<path d="M9705 9090 c-4 -6 -7 -66 -6 -95 1 -12 8 -21 19 -22 9 -1 31 -4 47
-8 52 -10 117 -17 167 -19 l48 -1 0 -832 c0 -786 -1 -832 -17 -831 -10 1 -52
-3 -93 -7 -41 -4 -92 -9 -112 -10 -46 -2 -48 -4 -58 -51 -8 -36 0 -71 22 -85
4 -3 145 -6 313 -6 167 -1 309 -4 315 -8 5 -3 10 -3 10 2 0 4 28 7 62 6 108
-3 154 -3 461 -2 l297 2 1 146 c1 205 -1 343 -6 351 -2 3 -36 6 -76 5 l-73 0
-13 -45 c-7 -24 -16 -65 -19 -90 -3 -25 -8 -54 -11 -65 -3 -11 -7 -31 -8 -46
-1 -14 -8 -41 -14 -61 l-12 -36 -342 1 -342 1 0 393 c0 256 3 393 10 394 46 4
378 3 380 -1 3 -5 11 -75 21 -190 3 -36 9 -69 14 -74 11 -11 86 -19 114 -12
21 5 21 8 19 333 -1 180 -2 331 -2 334 -1 4 -32 7 -71 8 -66 1 -70 0 -71 -21
-2 -56 -18 -211 -23 -215 -2 -2 -89 -5 -194 -6 -163 -2 -192 0 -194 13 -4 13
-2 659 1 685 1 12 634 15 646 4 3 -4 8 -18 10 -33 3 -14 7 -38 10 -53 12 -59
14 -69 19 -103 3 -19 7 -44 9 -55 3 -11 7 -37 11 -57 l7 -38 62 0 c108 0 105
-6 105 244 1 136 -3 224 -10 238 l-11 24 -710 -1 c-390 0 -710 -2 -712 -5z"/>
<path d="M11399 9085 c0 -5 -2 -32 -2 -59 -2 -46 0 -50 26 -57 43 -12 111 -19
175 -20 l59 -1 3 -227 c1 -172 2 -1237 0 -1414 0 -25 -3 -28 -32 -27 -18 1
-49 -1 -68 -4 -19 -3 -63 -7 -97 -8 -35 -2 -63 -7 -64 -13 -1 -12 -1 -117 0
-126 1 -4 93 -6 206 -5 113 0 205 -3 205 -7 0 -5 5 -5 11 -1 10 6 80 8 104 4
6 -1 14 -2 19 -1 4 1 59 2 121 2 104 1 138 7 136 23 -1 3 -1 7 0 9 6 21 8 47
3 69 -8 40 -31 45 -249 61 -11 0 -14 775 -3 792 7 11 867 14 884 3 11 -7 15
-781 4 -792 -5 -4 -50 -9 -205 -20 -39 -3 -45 -15 -44 -80 l2 -63 88 1 c49 0
89 -3 89 -7 0 -5 5 -5 12 -1 6 4 48 6 92 5 45 -2 86 -2 91 -2 6 0 55 0 110 0
126 0 122 0 230 3 l90 3 0 70 0 69 -40 2 c-41 2 -180 14 -212 18 -17 3 -18 47
-19 828 -1 594 2 825 10 826 6 0 29 3 51 6 22 3 58 8 80 11 22 2 58 8 80 12
22 4 43 6 47 5 4 -1 7 26 7 61 l-1 62 -392 -1 c-215 -1 -396 -2 -402 -3 -7 0
-11 -24 -12 -60 l0 -59 51 -8 c29 -4 59 -9 67 -10 12 -2 101 -11 131 -14 8 0
7 -684 -2 -690 -6 -4 -844 -5 -884 -1 -9 1 -13 686 -4 695 2 2 40 6 84 9 44 3
94 9 110 13 17 3 36 7 43 7 6 0 12 7 13 16 0 9 2 29 3 44 4 63 17 61 -413 62
-259 0 -391 -3 -392 -10z"/>
<path d="M13591 9090 c-9 -6 -8 -107 2 -116 3 -3 21 -7 39 -9 70 -6 154 -17
188 -24 l35 -7 0 -824 c0 -818 0 -825 -20 -826 -11 -1 -54 -5 -95 -9 -41 -4
-91 -9 -110 -10 -19 -2 -37 -3 -40 -4 -3 -1 -6 -26 -5 -57 0 -87 -14 -83 348
-83 48 -1 110 -1 137 -1 28 0 58 0 68 0 9 0 70 0 135 1 l117 1 1 31 c0 18 1
49 2 70 1 20 -2 37 -8 38 -5 1 -21 2 -35 4 -14 2 -65 6 -113 9 -48 3 -92 8
-97 11 -6 4 -10 34 -10 68 0 61 10 87 49 127 8 8 48 58 90 110 41 52 80 100
86 105 10 8 149 179 190 233 6 7 17 21 26 30 8 9 33 40 54 67 21 28 47 59 57
70 10 11 64 76 120 145 56 69 104 127 107 130 3 3 24 27 45 54 22 26 52 62 68
79 15 17 28 35 28 39 0 5 3 8 8 8 4 0 7 -285 7 -632 0 -494 -3 -632 -13 -630
-6 1 -12 -1 -12 -5 0 -5 -24 -8 -53 -9 -42 -1 -127 -7 -169 -13 -5 -1 -8 -26
-8 -57 0 -45 4 -60 21 -75 12 -10 26 -16 31 -13 8 5 249 8 273 4 6 -1 15 -2
20 -1 6 1 42 2 80 1 79 0 114 0 270 3 l110 2 2 68 c1 44 -3 67 -10 68 -7 1
-23 2 -37 4 -14 1 -62 5 -107 9 -45 3 -88 9 -96 12 -12 4 -14 132 -13 833 l0
829 60 1 c34 1 72 4 86 7 14 3 41 8 60 10 58 8 58 9 56 71 l-1 58 -400 0 -400
0 -3 -62 c-3 -60 -2 -63 20 -64 13 0 32 -2 43 -5 11 -2 40 -7 65 -10 25 -4 54
-8 65 -9 11 -2 30 -4 41 -4 19 -1 21 -6 20 -52 -2 -48 -7 -57 -102 -176 -54
-69 -104 -131 -109 -137 -6 -6 -30 -36 -55 -66 -25 -30 -51 -61 -58 -68 -7 -8
-25 -30 -40 -50 -15 -21 -31 -42 -37 -48 -5 -6 -23 -28 -40 -49 -16 -21 -35
-43 -40 -49 -6 -6 -39 -47 -75 -91 -35 -44 -70 -87 -77 -95 -25 -29 -88 -106
-118 -144 -16 -21 -38 -48 -48 -60 -10 -11 -35 -42 -55 -68 -20 -27 -40 -48
-44 -48 -4 0 -8 -6 -8 -14 0 -7 -7 -19 -15 -26 -13 -10 -15 -9 -15 11 -2 232
1 1223 3 1226 3 3 69 11 138 17 79 7 118 18 121 33 2 9 2 37 0 62 l-4 46 -395
0 c-217 0 -398 -2 -402 -5z"/>
<path d="M15806 9090 c-6 -12 -4 -110 2 -114 8 -5 74 -15 212 -31 24 -3 47 -8
50 -11 3 -3 5 -376 5 -828 0 -817 0 -822 -20 -823 -96 -2 -226 -22 -243 -35
-12 -11 -14 -88 -3 -107 8 -13 57 -31 65 -24 4 4 463 6 691 2 11 0 48 1 83 3
34 2 62 1 62 -2 0 -3 37 -4 82 -3 46 2 170 4 276 7 106 2 196 7 200 10 4 4 7
117 8 250 l1 241 -73 0 c-75 0 -86 -4 -91 -33 -3 -19 -19 -96 -26 -127 -3 -11
-8 -40 -11 -65 -8 -62 -16 -102 -21 -110 -2 -4 -74 -7 -160 -6 -85 1 -155 -3
-155 -7 0 -5 -4 -6 -8 -3 -8 4 -76 8 -112 5 -31 -2 -264 11 -268 15 -2 3 -4
141 -4 308 0 410 1 441 11 457 7 10 50 14 201 15 105 1 194 -3 197 -8 3 -5 7
-32 8 -60 2 -28 6 -78 10 -111 5 -33 8 -68 7 -77 0 -10 5 -19 11 -19 47 -5 92
-6 108 -2 17 5 18 23 16 337 l-2 331 -67 3 -68 3 -1 -33 c0 -18 -2 -42 -4 -53
-2 -11 -6 -49 -9 -84 -3 -35 -7 -66 -10 -68 -4 -5 -232 -7 -366 -4 l-45 1 1
339 c1 187 4 345 6 353 5 11 65 14 339 13 327 0 334 0 335 -20 3 -34 12 -97
23 -150 5 -27 12 -70 16 -95 11 -83 9 -81 86 -79 38 1 72 6 76 12 3 6 7 118 7
249 1 231 0 238 -19 239 -75 4 -1407 3 -1409 -1z"/>
</g>
</svg>
