<svg width="38" height="38" viewBox="0 0 38 38" fill="none" xmlns="http://www.w3.org/2000/svg">
<path d="M9.80875 1.88437C11.4284 0.657753 13.4057 -0.0038301 15.4375 0.00104894C16.1392 -0.0146855 16.8335 0.146819 17.4562 0.470617C18.0789 0.794416 18.6099 1.27005 19 1.8535C19.3901 1.27005 19.9211 0.794416 20.5438 0.470617C21.1665 0.146819 21.8608 -0.0146855 22.5625 0.00104894C24.5943 -0.0038301 26.5716 0.657753 28.1912 1.88437C29.4381 2.85335 30.4 4.19518 30.7396 5.81726C31.5186 5.87664 32.2311 6.19963 32.8296 6.68649C33.7369 7.42272 34.3971 8.52706 34.8128 9.69553C35.4635 11.5124 35.6393 13.8279 34.9648 15.7991C35.1358 15.8799 35.3044 15.9749 35.4683 16.0841C36.1214 16.5187 36.6178 17.141 36.9835 17.8748C37.7031 19.3116 38 21.3161 38 23.7504C38 26.4602 36.9669 28.2794 35.6559 29.4027C34.9309 30.0243 34.0754 30.4748 33.1526 30.7208C32.9151 32.046 32.2501 33.5802 31.2075 34.8817C29.8538 36.5798 27.7542 38 24.9375 38C22.705 38 20.9285 36.765 19.7743 35.5538C19.4983 35.2646 19.2398 34.9593 19 34.6395C18.7603 34.9593 18.5017 35.2647 18.2257 35.5538C17.0715 36.765 15.2974 38 13.0625 38C10.2458 38 8.14863 36.5798 6.7925 34.8817C5.81818 33.6718 5.15084 32.2443 4.84737 30.7208C3.92464 30.4748 3.06909 30.0243 2.34412 29.4027C1.03313 28.2794 0 26.4578 0 23.7504C0 21.3161 0.29925 19.3093 1.0165 17.8748C1.35643 17.1551 1.87883 16.5369 2.53175 16.0817C2.69215 15.9755 2.86048 15.8819 3.03525 15.8015C2.36075 13.8255 2.5365 11.5124 3.18725 9.69553C3.60288 8.52706 4.26313 7.42272 5.17038 6.68649C5.76888 6.19963 6.48138 5.87901 7.26038 5.81726C7.60238 4.19518 8.56425 2.85335 9.81113 1.88437H9.80875ZM17.8125 5.93838V5.91463L17.8078 5.79589C17.7728 5.17675 17.6496 4.56577 17.442 3.98144C17.2942 3.54032 17.0425 3.1412 16.7081 2.81772C16.3573 2.51226 15.9021 2.35401 15.4375 2.37598C13.934 2.37083 12.4698 2.8561 11.267 3.7582C10.165 4.61555 9.5 5.77689 9.5 7.12585C9.49986 7.31391 9.45505 7.49924 9.36927 7.66659C9.28349 7.83395 9.15919 7.97854 9.00659 8.08845C8.854 8.19837 8.67748 8.27048 8.49157 8.29884C8.30566 8.3272 8.11567 8.311 7.93725 8.25157C7.49075 8.10432 7.09175 8.18745 6.66663 8.52944C6.20113 8.90943 5.7475 9.58391 5.42212 10.4935C4.7595 12.3507 4.82837 14.5998 5.738 15.9677C5.86791 16.1626 5.93732 16.3914 5.9375 16.6256H7.71875C9.136 16.6256 10.4952 17.1886 11.4974 18.1907C12.4995 19.1928 13.0625 20.552 13.0625 21.9692V22.7648C13.8548 23.0449 14.5226 23.5961 14.9478 24.3209C15.373 25.0458 15.5283 25.8976 15.3862 26.7259C15.2441 27.5541 14.8137 28.3055 14.1712 28.8471C13.5287 29.3888 12.7154 29.6859 11.875 29.6859C11.0346 29.6859 10.2213 29.3888 9.57878 28.8471C8.93626 28.3055 8.50591 27.5541 8.36381 26.7259C8.2217 25.8976 8.37697 25.0458 8.80219 24.3209C9.2274 23.5961 9.89518 23.0449 10.6875 22.7648V21.9692C10.6875 20.3305 9.3575 19.0005 7.71875 19.0005H3.5625C3.42052 19.0003 3.27975 18.9746 3.14688 18.9245L3.13975 18.9388C2.6695 19.8769 2.375 21.4348 2.375 23.7504C2.375 25.7905 3.12312 26.9399 3.89025 27.5978C4.71438 28.3055 5.62875 28.5003 5.9375 28.5003C6.25244 28.5003 6.55449 28.6254 6.77719 28.8481C6.99989 29.0708 7.125 29.3728 7.125 29.6877C7.125 30.5617 7.6 32.0888 8.645 33.3998C9.66387 34.6703 11.1292 35.6251 13.0625 35.6251C14.3925 35.6251 15.5847 34.8817 16.5062 33.9151C16.9599 33.4401 17.3138 32.9485 17.5441 32.5448C17.649 32.3657 17.7388 32.1782 17.8125 31.9843V13.0632H15.2356C14.9555 13.8555 14.4043 14.5232 13.6794 14.9484C12.9546 15.3737 12.1027 15.5289 11.2744 15.3868C10.4462 15.2447 9.69479 14.8144 9.15313 14.1719C8.61146 13.5294 8.31437 12.7161 8.31437 11.8757C8.31437 11.0354 8.61146 10.2221 9.15313 9.57956C9.69479 8.93706 10.4462 8.50673 11.2744 8.36462C12.1027 8.22252 12.9546 8.37779 13.6794 8.80299C14.4043 9.2282 14.9555 9.89596 15.2356 10.6883H17.8125V5.93838ZM20.1875 29.6854V31.9819C20.2613 32.1759 20.351 32.3633 20.4559 32.5424C20.6886 32.9461 21.0401 33.4377 21.4914 33.9127C22.4152 34.8793 23.6099 35.6227 24.9375 35.6227C26.8708 35.6227 28.3361 34.668 29.355 33.3974C30.4 32.0864 30.875 30.5593 30.875 29.6854C30.875 29.3704 31.0001 29.0684 31.2228 28.8457C31.4455 28.623 31.7476 28.4979 32.0625 28.4979C32.3712 28.4979 33.2856 28.3031 34.1097 27.5954C34.8769 26.9376 35.625 25.7881 35.625 23.748C35.625 21.4325 35.3281 19.8769 34.8602 18.9364C34.7037 18.5862 34.458 18.2832 34.1478 18.0577C33.8803 17.8867 33.5672 17.8014 33.25 17.8131C33.0352 17.8129 32.8245 17.7546 32.6402 17.6442C32.456 17.5338 32.3051 17.3754 32.2037 17.1861C32.1023 16.9967 32.0542 16.7834 32.0645 16.5688C32.0747 16.3543 32.143 16.1466 32.262 15.9677C33.174 14.5998 33.2405 12.3507 32.5779 10.4935C32.2525 9.58391 31.7989 8.90705 31.3334 8.52944C30.9082 8.18745 30.5092 8.10195 30.0627 8.25157C29.8843 8.311 29.6943 8.3272 29.5084 8.29884C29.3225 8.27048 29.146 8.19837 28.9934 8.08845C28.8408 7.97854 28.7165 7.83395 28.6307 7.66659C28.5449 7.49924 28.5001 7.31391 28.5 7.12585C28.5 5.77689 27.835 4.61555 26.7306 3.7582C25.5285 2.85659 24.0652 2.37135 22.5625 2.37598C22.0979 2.35401 21.6427 2.51226 21.2919 2.81772C20.9565 3.14083 20.704 3.54 20.5556 3.98144C20.3295 4.60178 20.2052 5.25461 20.1875 5.91463V27.3128H21.9688C23.6075 27.3128 24.9375 25.9828 24.9375 24.3441V19.9861C24.1452 19.706 23.4774 19.1548 23.0522 18.43C22.627 17.7051 22.4717 16.8533 22.6138 16.025C22.7559 15.1968 23.1863 14.4454 23.8288 13.9038C24.4713 13.3621 25.2846 13.0651 26.125 13.0651C26.9654 13.0651 27.7787 13.3621 28.4212 13.9038C29.0637 14.4454 29.4941 15.1968 29.6362 16.025C29.7783 16.8533 29.623 17.7051 29.1978 18.43C28.7726 19.1548 28.1048 19.706 27.3125 19.9861V24.3441C27.3125 25.7613 26.7495 27.1205 25.7474 28.1226C24.7452 29.1247 23.386 29.6877 21.9688 29.6877H20.1875V29.6854ZM10.6875 11.8757C10.6875 12.1907 10.8126 12.4927 11.0353 12.7154C11.258 12.9381 11.5601 13.0632 11.875 13.0632C12.1899 13.0632 12.492 12.9381 12.7147 12.7154C12.9374 12.4927 13.0625 12.1907 13.0625 11.8757C13.0625 11.5608 12.9374 11.2587 12.7147 11.0361C12.492 10.8134 12.1899 10.6883 11.875 10.6883C11.5601 10.6883 11.258 10.8134 11.0353 11.0361C10.8126 11.2587 10.6875 11.5608 10.6875 11.8757ZM26.125 17.8131C26.4399 17.8131 26.742 17.688 26.9647 17.4653C27.1874 17.2426 27.3125 16.9405 27.3125 16.6256C27.3125 16.3107 27.1874 16.0086 26.9647 15.7859C26.742 15.5632 26.4399 15.4381 26.125 15.4381C25.8101 15.4381 25.508 15.5632 25.2853 15.7859C25.0626 16.0086 24.9375 16.3107 24.9375 16.6256C24.9375 16.9405 25.0626 17.2426 25.2853 17.4653C25.508 17.688 25.8101 17.8131 26.125 17.8131ZM11.875 24.9379C11.5601 24.9379 11.258 25.063 11.0353 25.2857C10.8126 25.5084 10.6875 25.8104 10.6875 26.1253C10.6875 26.4403 10.8126 26.7423 11.0353 26.965C11.258 27.1877 11.5601 27.3128 11.875 27.3128C12.1899 27.3128 12.492 27.1877 12.7147 26.965C12.9374 26.7423 13.0625 26.4403 13.0625 26.1253C13.0625 25.8104 12.9374 25.5084 12.7147 25.2857C12.492 25.063 12.1899 24.9379 11.875 24.9379Z" fill="url(#paint0_linear_429_1225)"/>
<defs>
<linearGradient id="paint0_linear_429_1225" x1="19" y1="0" x2="19" y2="38" gradientUnits="userSpaceOnUse">
<stop stop-color="white"/>
<stop offset="1" stop-color="#E61F0A"/>
</linearGradient>
</defs>
</svg>
