<svg width="27" height="31" viewBox="0 0 27 31" fill="none" xmlns="http://www.w3.org/2000/svg">
<path d="M13.0226 0.557763C12.8906 0.399019 12.7281 0.268311 12.5448 0.173344C12.3615 0.0783766 12.161 0.0210717 11.9552 0.00480713C11.7493 -0.0114574 11.5423 0.0136476 11.3464 0.0786423C11.1504 0.143637 10.9694 0.247206 10.8141 0.383244C10.6588 0.519283 10.5323 0.685038 10.442 0.870738C10.3518 1.05644 10.2996 1.25833 10.2886 1.4645C10.2776 1.67068 10.308 1.87697 10.378 2.07121C10.448 2.26546 10.5562 2.44373 10.6961 2.59551L12.1131 4.21664C9.52882 4.46709 7.07291 5.46255 5.04361 7.08212C3.01432 8.70168 1.49897 10.8757 0.681628 13.34C-0.135718 15.8043 -0.219893 18.453 0.43933 20.9643C1.09855 23.4755 2.4728 25.7413 4.39517 27.4865C6.31753 29.2316 8.70528 30.381 11.2684 30.7951C13.8315 31.2091 16.4597 30.8699 18.8338 29.8188C21.2078 28.7677 23.2256 27.0498 24.642 24.8738C26.0583 22.6978 26.8124 20.1574 26.8125 17.561V17.0454C26.8125 16.6351 26.6495 16.2417 26.3594 15.9516C26.0693 15.6615 25.6759 15.4985 25.2656 15.4985C24.8554 15.4985 24.4619 15.6615 24.1718 15.9516C23.8817 16.2417 23.7188 16.6351 23.7188 17.0454V17.561C23.7185 19.5394 23.1493 21.4759 22.0788 23.1397C21.0084 24.8035 19.482 26.1242 17.6816 26.9444C15.8813 27.7646 13.883 28.0496 11.9251 27.7655C9.96727 27.4813 8.13246 26.64 6.63954 25.3419C5.14663 24.0438 4.05863 22.3436 3.50531 20.4442C2.95198 18.5447 2.9567 16.5262 3.51889 14.6294C4.08107 12.7326 5.17701 11.0375 6.67597 9.74639C8.17493 8.45524 10.0136 7.62251 11.9728 7.34751L10.6941 8.80776C10.5603 8.96079 10.4579 9.13868 10.3929 9.33127C10.3278 9.52385 10.3013 9.72736 10.3149 9.93019C10.3285 10.133 10.3819 10.3312 10.4721 10.5133C10.5623 10.6955 10.6875 10.8582 10.8405 10.992C10.9935 11.1258 11.1714 11.2281 11.364 11.2932C11.5566 11.3582 11.7601 11.3847 11.9629 11.3711C12.1657 11.3575 12.3639 11.3041 12.5461 11.2139C12.7283 11.1237 12.8909 10.9985 13.0247 10.8455L16.6341 6.72051C16.8809 6.4385 17.017 6.07644 17.017 5.70164C17.017 5.32683 16.8809 4.96478 16.6341 4.68276L13.0247 0.557763H13.0226ZM20.2228 12.9121C20.4986 13.2155 20.6427 13.616 20.6233 14.0256C20.604 14.4351 20.4228 14.8203 20.1197 15.0963L14.4478 20.2526C14.1536 20.52 13.7676 20.6638 13.3701 20.6542C12.9727 20.6446 12.5941 20.4823 12.3131 20.201L9.735 17.6229C9.46176 17.3297 9.31301 16.9418 9.32008 16.5411C9.32715 16.1403 9.48949 15.758 9.77291 15.4745C10.0563 15.1911 10.4387 15.0288 10.8394 15.0217C11.2402 15.0146 11.628 15.1634 11.9213 15.4366L13.4578 16.9711L18.0366 12.807C18.1868 12.6701 18.3626 12.5642 18.5539 12.4953C18.7451 12.4264 18.948 12.3958 19.1511 12.4054C19.3541 12.415 19.5533 12.4645 19.7372 12.5511C19.9211 12.6377 20.0861 12.7597 20.2228 12.9101V12.9121Z" fill="url(#paint0_linear_429_1246)"/>
<defs>
<linearGradient id="paint0_linear_429_1246" x1="13.4062" y1="0" x2="13.4063" y2="30.9666" gradientUnits="userSpaceOnUse">
<stop stop-color="white"/>
<stop offset="1" stop-color="#E61F0A"/>
</linearGradient>
</defs>
</svg>
