<svg width="33" height="33" viewBox="0 0 33 33" fill="none" xmlns="http://www.w3.org/2000/svg">
<path d="M31.8214 0H1.17857L0 1.17857V31.8214L1.17857 33H31.8214L33 31.8214V1.17857L31.8214 0ZM30.6429 30.6429H9.42857V25.9286H14.85C15.5571 27.3429 17.2071 28.2857 18.8571 28.2857C21.45 28.2857 23.5714 26.1643 23.5714 23.5714C23.5714 20.9786 21.45 18.8571 18.8571 18.8571C16.2643 18.8571 14.1429 20.9786 14.1429 23.5714H7.07143V30.6429H2.35714V2.35714H7.07143V7.77857C5.65714 8.48572 4.71429 10.1357 4.71429 11.7857C4.71429 14.3786 6.83571 16.5 9.42857 16.5C12.0214 16.5 14.1429 14.3786 14.1429 11.7857H18.8571C18.8571 14.3786 20.9786 16.5 23.5714 16.5C26.1643 16.5 28.2857 14.3786 28.2857 11.7857C28.2857 9.19286 26.1643 7.07143 23.5714 7.07143C21.9214 7.07143 20.2714 8.01429 19.5643 9.42857H13.4357C12.7286 8.01429 11.0786 7.07143 9.42857 7.07143V2.35714H30.6429V30.6429ZM16.5 23.5714C16.5 22.1571 17.4429 21.2143 18.8571 21.2143C20.2714 21.2143 21.2143 22.1571 21.2143 23.5714C21.2143 24.9857 20.2714 25.9286 18.8571 25.9286C17.4429 25.9286 16.5 24.9857 16.5 23.5714ZM9.42857 9.42857C10.8429 9.42857 11.7857 10.3714 11.7857 11.7857C11.7857 13.2 10.8429 14.1429 9.42857 14.1429C8.01429 14.1429 7.07143 13.2 7.07143 11.7857C7.07143 10.3714 8.01429 9.42857 9.42857 9.42857ZM23.5714 9.42857C24.9857 9.42857 25.9286 10.3714 25.9286 11.7857C25.9286 13.2 24.9857 14.1429 23.5714 14.1429C22.1571 14.1429 21.2143 13.2 21.2143 11.7857C21.2143 10.3714 22.1571 9.42857 23.5714 9.42857Z" fill="url(#paint0_linear_429_1227)"/>
<defs>
<linearGradient id="paint0_linear_429_1227" x1="16.5" y1="0" x2="16.5" y2="33" gradientUnits="userSpaceOnUse">
<stop stop-color="white"/>
<stop offset="1" stop-color="#E61F0A"/>
</linearGradient>
</defs>
</svg>
